<svg id="Page_icon" data-name="Page icon" xmlns="http://www.w3.org/2000/svg" xmlns:xlink="http://www.w3.org/1999/xlink" width="500" height="1000" viewBox="0 0 500 1000">
  <metadata><?xpacket begin="﻿" id="W5M0MpCehiHzreSzNTczkc9d"?>
<x:xmpmeta xmlns:x="adobe:ns:meta/" x:xmptk="Adobe XMP Core 5.6-c138 79.159824, 2016/09/14-01:09:01        ">
   <rdf:RDF xmlns:rdf="http://www.w3.org/1999/02/22-rdf-syntax-ns#">
      <rdf:Description rdf:about=""/>
   </rdf:RDF>
</x:xmpmeta>
                                                                                                    
                                                                                                    
                                                                                                    
                                                                                                    
                                                                                                    
                                                                                                    
                                                                                                    
                                                                                                    
                                                                                                    
                                                                                                    
                                                                                                    
                                                                                                    
                                                                                                    
                                                                                                    
                                                                                                    
                                                                                                    
                                                                                                    
                                                                                                    
                                                                                                    
                                                                                                    
                           
<?xpacket end="w"?></metadata>
<defs>
    <style>
      .cls-1, .cls-11, .cls-13, .cls-14, .cls-16, .cls-27, .cls-28, .cls-29, .cls-32, .cls-33, .cls-35, .cls-36, .cls-37, .cls-41, .cls-44, .cls-48, .cls-5, .cls-50, .cls-51, .cls-52, .cls-53, .cls-6, .cls-7, .cls-8, .cls-9 {
        fill: none;
      }

      .cls-1 {
        stroke: #6f6f6f;
      }

      .cls-1, .cls-13, .cls-14, .cls-16, .cls-5, .cls-53, .cls-6, .cls-7, .cls-8, .cls-9 {
        stroke-width: 2px;
      }

      .cls-1, .cls-10, .cls-11, .cls-13, .cls-14, .cls-15, .cls-17, .cls-19, .cls-2, .cls-22, .cls-24, .cls-27, .cls-28, .cls-29, .cls-3, .cls-30, .cls-31, .cls-32, .cls-33, .cls-34, .cls-35, .cls-38, .cls-4, .cls-42, .cls-44, .cls-45, .cls-48, .cls-5, .cls-50, .cls-53, .cls-54, .cls-56, .cls-57, .cls-7, .cls-9 {
        fill-rule: evenodd;
      }

      .cls-2, .cls-38 {
        fill: #6f6f6f;
      }

      .cls-3, .cls-42 {
        fill: #58595b;
      }

      .cls-3 {
        filter: url(#filter);
      }

      .cls-4 {
        fill: #818181;
        filter: url(#filter-2);
      }

      .cls-35, .cls-37, .cls-5, .cls-50 {
        stroke: #b2b2b2;
      }

      .cls-6, .cls-7 {
        stroke: #fff;
      }

      .cls-29, .cls-33, .cls-36, .cls-40, .cls-8, .cls-9 {
        stroke: #00b9ee;
      }

      .cls-10 {
        fill: #473e42;
      }

      .cls-11, .cls-14, .cls-44 {
        stroke: #505050;
      }

      .cls-11, .cls-32, .cls-33, .cls-35, .cls-36, .cls-37 {
        stroke-width: 1.5px;
      }

      .cls-12 {
        filter: url(#filter-3);
      }

      .cls-13 {
        stroke: #7d7d7d;
      }

      .cls-15 {
        fill: #4f4f4f;
      }

      .cls-16 {
        stroke: #f6f6f6;
      }

      .cls-17, .cls-19 {
        fill: #a5de27;
      }

      .cls-17 {
        filter: url(#filter-4);
      }

      .cls-18 {
        filter: url(#filter-5);
      }

      .cls-19 {
        filter: url(#filter-6);
      }

      .cls-20 {
        filter: url(#filter-7);
      }

      .cls-21 {
        fill: #76d1ef;
      }

      .cls-22, .cls-46, .cls-54 {
        fill: #fff;
      }

      .cls-23, .cls-30, .cls-40 {
        fill: #00b9ee;
      }

      .cls-24 {
        fill: #74b638;
      }

      .cls-25 {
        fill: #96ce63;
      }

      .cls-26 {
        fill: #f6f6f6;
      }

      .cls-27, .cls-52 {
        stroke: #363636;
      }

      .cls-27, .cls-28, .cls-29, .cls-40, .cls-41, .cls-48, .cls-50, .cls-51, .cls-52, .cls-54 {
        stroke-width: 1px;
      }

      .cls-28, .cls-41 {
        stroke: #949494;
      }

      .cls-31 {
        fill: #949494;
      }

      .cls-32 {
        stroke: #b7b7b7;
      }

      .cls-34 {
        fill: #b3b2b3;
      }

      .cls-38 {
        filter: url(#filter-8);
      }

      .cls-39 {
        filter: url(#filter-9);
      }

      .cls-43, .cls-45 {
        fill: #505050;
      }

      .cls-44 {
        stroke-width: 1.3px;
      }

      .cls-47 {
        filter: url(#filter-10);
      }

      .cls-48 {
        stroke: #848484;
      }

      .cls-49 {
        filter: url(#filter-11);
      }

      .cls-51 {
        stroke: #58595b;
      }

      .cls-53 {
        stroke: #ccc;
      }

      .cls-54 {
        stroke: #c2c2c2;
      }

      .cls-55, .cls-57 {
        fill: #535353;
      }

      .cls-56 {
        fill: #535354;
      }
    </style>
    <filter id="filter" x="206.969" y="206" width="21.031" height="12" filterUnits="userSpaceOnUse">
      <feFlood result="flood" flood-color="#818181"/>
      <feComposite result="composite" operator="in" in2="SourceGraphic"/>
      <feBlend result="blend" in2="SourceGraphic"/>
    </filter>
    <filter id="filter-2" x="232.031" y="206" width="13.969" height="14" filterUnits="userSpaceOnUse">
      <feFlood result="flood" flood-color="#c8c8c8"/>
      <feComposite result="composite" operator="in" in2="SourceGraphic"/>
      <feBlend result="blend" in2="SourceGraphic"/>
    </filter>
    <filter id="filter-3" filterUnits="userSpaceOnUse">
      <feFlood result="flood" flood-color="#949494"/>
      <feComposite result="composite" operator="in" in2="SourceGraphic"/>
      <feBlend result="blend" in2="SourceGraphic"/>
    </filter>
    <filter id="filter-4" x="10.969" y="173.969" width="13.781" height="13.5" filterUnits="userSpaceOnUse">
      <feFlood result="flood" flood-color="#fff"/>
      <feComposite result="composite" operator="in" in2="SourceGraphic"/>
      <feBlend result="blend" in2="SourceGraphic"/>
    </filter>
    <filter id="filter-5" filterUnits="userSpaceOnUse">
      <feFlood result="flood" flood-color="#505050"/>
      <feComposite result="composite" operator="in" in2="SourceGraphic"/>
      <feBlend result="blend" in2="SourceGraphic"/>
    </filter>
    <filter id="filter-6" x="37.969" y="173.969" width="13.781" height="13.5" filterUnits="userSpaceOnUse">
      <feFlood result="flood" flood-color="#fff"/>
      <feComposite result="composite" operator="in" in2="SourceGraphic"/>
      <feBlend result="blend" in2="SourceGraphic"/>
    </filter>
    <filter id="filter-7" filterUnits="userSpaceOnUse">
      <feFlood result="flood" flood-color="#6f6f6f"/>
      <feComposite result="composite" operator="in" in2="SourceGraphic"/>
      <feBlend result="blend" in2="SourceGraphic"/>
    </filter>
    <filter id="filter-8" x="254" y="208" width="11" height="10" filterUnits="userSpaceOnUse">
      <feFlood result="flood" flood-color="#8c8c8c"/>
      <feComposite result="composite" operator="in" in2="SourceGraphic"/>
      <feBlend result="blend" in2="SourceGraphic"/>
    </filter>
    <filter id="filter-9" filterUnits="userSpaceOnUse">
      <feFlood result="flood" flood-color="#363636"/>
      <feComposite result="composite" operator="in" in2="SourceGraphic"/>
      <feBlend result="blend" in2="SourceGraphic"/>
    </filter>
    <filter id="filter-10" filterUnits="userSpaceOnUse">
      <feFlood result="flood" flood-color="#9a9a9a"/>
      <feComposite result="composite" operator="in" in2="SourceGraphic"/>
      <feBlend result="blend" in2="SourceGraphic"/>
    </filter>
    <filter id="filter-11" filterUnits="userSpaceOnUse">
      <feFlood result="flood" flood-color="#5f5f5f"/>
      <feComposite result="composite" operator="in" in2="SourceGraphic"/>
      <feBlend result="blend" in2="SourceGraphic"/>
    </filter>
  </defs>
  <path id="Rounded_Rectangle_3" data-name="Rounded Rectangle 3" class="cls-1" d="M186,205h8a2,2,0,0,1,2,2v10a2,2,0,0,1-2,2h-8a2,2,0,0,1-2-2V207A2,2,0,0,1,186,205Z"/>
  <path class="cls-2" d="M186,210v-2h8v2h-8Z"/>
  <path id="Shape_75_copy" data-name="Shape 75 copy" class="cls-2" d="M186,213v-2h8v2h-8Z"/>
  <path id="eye" class="cls-3" d="M217.5,206a13.069,13.069,0,0,1,8.23,3.192,14.2,14.2,0,0,1,2.168,2.249,0.26,0.26,0,0,1,.044.364,13.927,13.927,0,0,1-6.957,5.594,10.329,10.329,0,0,1-9.292-1.215,17.549,17.549,0,0,1-4.632-4.344,0.271,0.271,0,0,1,.008-0.4,14.076,14.076,0,0,1,8.148-5.151C215.968,206.135,216.74,206.093,217.5,206Zm-4.021,6.008a4.107,4.107,0,1,0,4.216-4.171A4.169,4.169,0,0,0,213.481,212.008Zm4.094,2.343a2.329,2.329,0,1,1,2.3-2.31A2.263,2.263,0,0,1,217.575,214.351Z"/>
  <path class="cls-4" d="M246,210.962a4.974,4.974,0,1,0-4.97,4.966A4.965,4.965,0,0,0,246,210.962Zm-1.654-.008a3.32,3.32,0,1,1-3.357-3.3A3.32,3.32,0,0,1,244.346,210.954ZM233.737,220a1.67,1.67,0,0,0,.252-0.168q1.569-1.557,3.131-3.12c0.213-.212.426-0.423,0.637-0.636a0.313,0.313,0,0,0,0-.508q-0.675-.675-1.352-1.348a0.308,0.308,0,0,0-.489-0.006q-1.905,1.9-3.806,3.8a0.3,0.3,0,0,0,0,.469q0.688,0.69,1.383,1.376A1.309,1.309,0,0,0,233.737,220Z"/>
  <path id="Shape_75_copy_2" data-name="Shape 75 copy 2" class="cls-2" d="M186,216v-2h6v2h-6Z"/>
  <path class="cls-5" d="M7.238,315.845s10.955-4.531,22.119.651c12.081,5.607,11.109,19.056,11.109,19.056"/>
  <path class="cls-5" d="M51.549,344.618s12.6-7.968,26.53-4.214c11.027,2.971,16.549,13.306,16.549,13.306"/>
  <path id="jet" class="cls-5" d="M39.179,334.373l19.027-21.837"/>
  <path id="jet-2" data-name="jet" class="cls-5" d="M68.578,318.715L62.125,340.5"/>
  <path class="cls-5" d="M34.675,320.148s10.836-.555,15.2,3.028"/>
  <path class="cls-5" d="M64.557,333.477s3.58,5.121,3.9,6.6"/>
  <path class="cls-5" d="M23.807,336.643a20.226,20.226,0,0,1,16.517.819c8.343,4.449,9.91,11.862,9.91,11.862"/>
  <circle class="cls-6" cx="97.703" cy="257.563" r="2.735"/>
  <path id="Rocket-2" data-name="Rocket" class="cls-7" d="M116.115,231.122c0.425,3.826,1.1,7.643,1.223,11.478a57.374,57.374,0,0,1-3.394,22.146,65.3,65.3,0,0,1-7.631,13.737q-3.366,4.926-6.845,9.774-4.148,5.8-8.39,11.531A3.031,3.031,0,0,0,90.5,302.7c1.231,4.2,2.373,8.427,3.595,12.631a2.248,2.248,0,0,1-.4,2.184q-3.886,4.968-7.772,9.935c-0.633.805-.968,0.738-1.4-0.134q-2.68-5.433-5.4-10.846c-0.332-.662-1.9-0.781-2.607-0.216-1.112.894-2.283,1.727-3.306,2.714a2.835,2.835,0,0,1-3.121.6,36.068,36.068,0,0,1-12.326-7.235c-1.578-1.39-1-3.007-.745-4.62,0.141-.906.349-1.8,0.511-2.7a1.862,1.862,0,0,0-1.89-2.1c-2.925.093-5.85,0.145-8.775,0.222-0.888.023-1.775,0.084-2.662,0.115-1.142.04-1.288-.166-0.809-1.278,0.99-2.3,2-4.585,3.02-6.873,0.61-1.374,1.3-2.717,1.84-4.118a2.824,2.824,0,0,1,2.447-1.75c3.146-.667,6.232-1.685,9.4-2.149,3.19-.466,4.843-2.074,6.2-4.97,3.97-8.458,8.267-16.766,12.554-25.073A46.094,46.094,0,0,1,92.2,241.106a109.94,109.94,0,0,1,9.851-6.318,58.84,58.84,0,0,1,11.865-4.889C115.47,229.383,115.63,229.53,116.115,231.122Z"/>
  <path class="cls-5" d="M121.238,315.845s10.956-4.531,22.119.651c12.081,5.607,11.109,19.056,11.109,19.056"/>
  <path class="cls-5" d="M165.548,344.618s12.6-7.968,26.53-4.214c11.027,2.971,16.55,13.306,16.55,13.306"/>
  <path id="jet-3" data-name="jet" class="cls-5" d="M153.179,334.373l19.027-21.837"/>
  <path id="jet-4" data-name="jet" class="cls-5" d="M182.578,318.715L176.125,340.5"/>
  <path class="cls-5" d="M148.675,320.148s10.836-.555,15.195,3.028"/>
  <path class="cls-5" d="M178.557,333.477s3.58,5.121,3.9,6.6"/>
  <path class="cls-5" d="M137.807,336.643a20.227,20.227,0,0,1,16.517.819c8.342,4.449,9.91,11.862,9.91,11.862"/>
  <circle class="cls-8" cx="211.703" cy="257.563" r="2.734"/>
  <path id="Rocket-3" data-name="Rocket" class="cls-9" d="M230.115,231.122c0.425,3.826,1.1,7.643,1.223,11.478a57.374,57.374,0,0,1-3.394,22.146,65.3,65.3,0,0,1-7.631,13.737q-3.366,4.926-6.845,9.774-4.149,5.8-8.39,11.531a3.03,3.03,0,0,0-.582,2.907c1.231,4.2,2.373,8.427,3.595,12.631a2.247,2.247,0,0,1-.4,2.184q-3.885,4.968-7.772,9.935c-0.632.805-.968,0.738-1.4-0.134q-2.68-5.433-5.4-10.846c-0.332-.662-1.9-0.781-2.607-0.216-1.112.894-2.283,1.727-3.306,2.714a2.836,2.836,0,0,1-3.121.6,36.072,36.072,0,0,1-12.326-7.235c-1.578-1.39-1-3.007-.744-4.62,0.141-.906.349-1.8,0.51-2.7a1.861,1.861,0,0,0-1.889-2.1c-2.925.093-5.85,0.145-8.776,0.222-0.887.023-1.774,0.084-2.662,0.115-1.142.04-1.288-.166-0.809-1.278,0.99-2.3,2-4.585,3.02-6.873,0.61-1.374,1.3-2.717,1.84-4.118a2.825,2.825,0,0,1,2.447-1.75c3.146-.667,6.232-1.685,9.4-2.149,3.19-.466,4.843-2.074,6.2-4.97,3.969-8.458,8.267-16.766,12.553-25.073A46.09,46.09,0,0,1,206.2,241.106a110.026,110.026,0,0,1,9.851-6.318,58.84,58.84,0,0,1,11.865-4.889C229.47,229.383,229.63,229.53,230.115,231.122Z"/>
  <path class="cls-10" d="M164.582,217.9a1.115,1.115,0,0,0-1.159.643c-0.2.383-.436,0.747-0.644,1.125a0.572,0.572,0,0,1-.784.276c-0.472-.169-0.946-0.332-1.416-0.507a0.5,0.5,0,0,1-.371-0.64c0.124-.529.226-1.063,0.338-1.595a1.253,1.253,0,0,0-1.54-1.372c-0.489.115-.978,0.238-1.459,0.38a0.5,0.5,0,0,1-.7-0.27c-0.179-.376-0.394-0.737-0.581-1.111-0.242-.485-0.2-0.613.268-0.885,0.384-.222.763-0.459,1.167-0.643,0.762-.349.993-1.981-0.026-2.314a9.36,9.36,0,0,1-1.356-.715,0.48,0.48,0,0,1-.254-0.711c0.2-.426.377-0.859,0.558-1.291a0.552,0.552,0,0,1,.718-0.342q0.795,0.186,1.592.36a1.306,1.306,0,0,0,1.53-1.489c-0.139-.5-0.264-1-0.425-1.5a0.482,0.482,0,0,1,.346-0.674c0.452-.18.908-0.353,1.356-0.543a0.507,0.507,0,0,1,.714.239c0.278,0.46.566,0.914,0.854,1.368a1.426,1.426,0,0,0,2.186-.035c0.268-.449.537-0.9,0.8-1.353a0.521,0.521,0,0,1,.716-0.251c0.443,0.167.892,0.32,1.338,0.482a0.59,0.59,0,0,1,.478.834c-0.106.48-.232,0.957-0.349,1.435a1.274,1.274,0,0,0,1.532,1.378c0.47-.13.933-0.289,1.4-0.422a0.655,0.655,0,0,1,.92.4c0.187,0.388.359,0.782,0.544,1.17a0.533,0.533,0,0,1-.261.786q-0.689.384-1.363,0.787a1.259,1.259,0,0,0,.035,2.049c0.446,0.251.893,0.5,1.346,0.739a0.553,0.553,0,0,1,.305.78c-0.168.409-.334,0.82-0.52,1.221a0.646,0.646,0,0,1-.86.384c-0.5-.113-1.006-0.236-1.512-0.341a1.247,1.247,0,0,0-1.454,1.47c0.136,0.46.266,0.922,0.42,1.376a0.556,0.556,0,0,1-.358.76c-0.483.211-.978,0.4-1.469,0.59a0.483,0.483,0,0,1-.656-0.216c-0.242-.39-0.519-0.763-0.73-1.167A1.152,1.152,0,0,0,164.582,217.9Zm-0.046-2.783A3.227,3.227,0,0,0,167.851,212a3.325,3.325,0,0,0-6.64-.026A3.22,3.22,0,0,0,164.536,215.117Z"/>
  <path id="sub_1" data-name="sub 1" class="cls-11" d="M18.469,384.771a7.887,7.887,0,0,1-.914-0.185c-0.622-.2-1.236-0.432-1.846-0.665-1.477-.565-2.95-1.139-4.425-1.708-0.946-.365-1.9-0.714-2.838-1.1a2.749,2.749,0,0,1-1.413-3.6c0.736-1.56,1.484-3.115,2.226-4.673,0.131-.274.262-0.549,0.389-0.826a1.5,1.5,0,0,1,1.931-.854,6.957,6.957,0,0,1,1.179.566,11.539,11.539,0,0,0,9.742.632c0.746-.3,1.432-0.73,2.16-1.07a1.923,1.923,0,0,1,2.391.367,8.327,8.327,0,0,1,.758,1.185q1.455,2.468,2.9,4.941a2.208,2.208,0,0,1-1.122,3.178c-1.735.712-3.476,1.41-5.215,2.112-1.11.448-2.216,0.907-3.334,1.335a10.157,10.157,0,0,1-1.158.3l-0.251.061H18.469ZM19.046,357c0.317,0.055.637,0.1,0.951,0.166a6.486,6.486,0,0,1,3.659,2.176,6.274,6.274,0,0,1,.715,7.125,6.42,6.42,0,0,1-2.376,2.416,6.659,6.659,0,0,1-3.732.935,6.5,6.5,0,0,1-4.432-1.9,6.065,6.065,0,0,1-1.9-4.72,6.2,6.2,0,0,1,2.727-4.973,6.68,6.68,0,0,1,3.2-1.193c0.059-.007.118-0.023,0.176-0.035h1.01Zm0,0c0.317,0.055.637,0.1,0.951,0.166a6.486,6.486,0,0,1,3.659,2.176,6.274,6.274,0,0,1,.715,7.125,6.42,6.42,0,0,1-2.376,2.416,6.659,6.659,0,0,1-3.732.935,6.5,6.5,0,0,1-4.432-1.9,6.065,6.065,0,0,1-1.9-4.72,6.2,6.2,0,0,1,2.727-4.973,6.68,6.68,0,0,1,3.2-1.193c0.059-.007.118-0.023,0.176-0.035h1.01Z"/>
  <g id="Inactive" class="cls-12">
    <g id="Download_icon_2" data-name="Download icon 2">
      <path id="Arrow" class="cls-5" d="M169.965,60.9V72.274H165.1l9.4,10.319,9.4-10.318h-4.866V60.9h-9.07Z"/>
      <path class="cls-9" d="M160.031,86h28.938v4H160.031V86Z"/>
    </g>
    <g id="World_map_2" data-name="World map 2">
      <path class="cls-5" d="M107,65.062l10.15-4.534V85.37L107,89.905V65.062ZM129.952,90l-10.158-4.537V60.62l10.158,4.537V90Zm12.013-5.172-9.371,4.357V64.343L141.932,60C142,60.172,142.027,84.265,141.965,84.828Z"/>
    </g>
    <g id="Pie_2" data-name="Pie 2">
      <path class="cls-5" d="M73.12,60.968V76.762l14.657,5.646A15.118,15.118,0,1,1,73.12,60.968Z"/>
      <path class="cls-9" d="M76.081,59A16.013,16.013,0,0,1,90.149,80l-3.474-1.367c-3.3-1.3-6.607-2.579-9.891-3.916a1.355,1.355,0,0,1-.762-0.922c-0.047-4.806-.031-9.613-0.026-14.42A2.013,2.013,0,0,1,76.081,59Z"/>
    </g>
    <g id="List_Icon_2_copy" data-name="List Icon 2 copy">
      <path id="Rectangle_14_copy_7" data-name="Rectangle 14 copy 7" class="cls-5" d="M19.969,84.031H41.031v2.938H19.969V84.031Z"/>
      <path id="Rectangle_14_copy_6" data-name="Rectangle 14 copy 6" class="cls-5" d="M10.969,84h5.062v3H10.969V84Z"/>
      <path id="Rectangle_14_copy_8" data-name="Rectangle 14 copy 8" class="cls-5" d="M19.969,77.031H41.031v2.938H19.969V77.031Z"/>
      <path id="Rectangle_14_copy_9" data-name="Rectangle 14 copy 9" class="cls-5" d="M10.969,77h5.062v3H10.969V77Z"/>
      <path id="Rectangle_14_copy_10" data-name="Rectangle 14 copy 10" class="cls-9" d="M19.969,70.031H41.031v2.938H19.969V70.031Z"/>
      <path id="Rectangle_14_copy_11" data-name="Rectangle 14 copy 11" class="cls-9" d="M10.969,70h5.062v3H10.969V70Z"/>
      <path id="Rectangle_14_copy_12" data-name="Rectangle 14 copy 12" class="cls-5" d="M19.969,63.031H41.031v2.938H19.969V63.031Z"/>
      <path id="Rectangle_14_copy_13" data-name="Rectangle 14 copy 13" class="cls-5" d="M10.969,63h5.062v3H10.969V63Z"/>
    </g>
  </g>
  <g id="Active">
    <g id="Download_icon_2-2" data-name="Download icon 2">
      <path id="Arrow-2" data-name="Arrow" class="cls-5" d="M169.965,10.9V22.274H165.1l9.4,10.319,9.4-10.318h-4.866V10.9h-9.07Z"/>
      <path class="cls-9" d="M160.031,36h28.938v4H160.031V36Z"/>
    </g>
    <g id="World_map_2-2" data-name="World map 2">
      <path class="cls-5" d="M107,15.062l10.15-4.534V35.37L107,39.905V15.062ZM129.952,40l-10.158-4.537V10.62l10.158,4.538V40Zm12.013-5.172-9.371,4.357V14.343L141.932,10C142,10.172,142.027,34.265,141.965,34.828Z"/>
    </g>
    <g id="Pie_2-2" data-name="Pie 2">
      <path class="cls-5" d="M73.12,10.968V26.762l14.657,5.646A15.118,15.118,0,1,1,73.12,10.968Z"/>
      <path class="cls-9" d="M76.081,9A16.013,16.013,0,0,1,90.149,30l-3.474-1.367c-3.3-1.3-6.607-2.579-9.891-3.916a1.355,1.355,0,0,1-.762-0.922c-0.047-4.806-.031-9.613-0.026-14.42A2.014,2.014,0,0,1,76.081,9Z"/>
    </g>
    <g id="List_Icon_2" data-name="List Icon 2">
      <path id="Rectangle_14_copy_7-2" data-name="Rectangle 14 copy 7" class="cls-5" d="M19.969,34.031H41.031v2.938H19.969V34.031Z"/>
      <path id="Rectangle_14_copy_6-2" data-name="Rectangle 14 copy 6" class="cls-5" d="M10.969,34h5.062v3H10.969V34Z"/>
      <path id="Rectangle_14_copy_8-2" data-name="Rectangle 14 copy 8" class="cls-5" d="M19.969,27.031H41.031v2.938H19.969V27.031Z"/>
      <path id="Rectangle_14_copy_9-2" data-name="Rectangle 14 copy 9" class="cls-5" d="M10.969,27h5.062v3H10.969V27Z"/>
      <path id="Rectangle_14_copy_10-2" data-name="Rectangle 14 copy 10" class="cls-9" d="M19.969,20.031H41.031v2.938H19.969V20.031Z"/>
      <path id="Rectangle_14_copy_11-2" data-name="Rectangle 14 copy 11" class="cls-9" d="M10.969,20h5.062v3H10.969V20Z"/>
      <path id="Rectangle_14_copy_12-2" data-name="Rectangle 14 copy 12" class="cls-5" d="M19.969,13.031H41.031v2.938H19.969V13.031Z"/>
      <path id="Rectangle_14_copy_13-2" data-name="Rectangle 14 copy 13" class="cls-5" d="M10.969,13h5.062v3H10.969V13Z"/>
    </g>
  </g>
  <path class="cls-9" d="M6,108H9v8H6v-8Z"/>
  <path id="Rectangle_15_copy" data-name="Rectangle 15 copy" class="cls-9" d="M18,102.875h3v13.25H18v-13.25Z"/>
  <g id="Report_Table_icons" data-name="Report Table icons">
    <path id="Shape_68_copy" data-name="Shape 68 copy" class="cls-13" d="M7,131l4-4,4,1,4-5"/>
    <g id="Talk_bubble" data-name="Talk bubble">
      <path id="talk_bubble-2" data-name="talk bubble" class="cls-14" d="M11,139H26a5,5,0,0,1,5,5v6a5,5,0,0,1-5,5H21l-8,5v-5H11a5,5,0,0,1-5-5v-6A5,5,0,0,1,11,139Z"/>
      <path class="cls-15" d="M19.895,147.689a2.153,2.153,0,0,0,.477.843,2.547,2.547,0,0,1,1.189.849,1.013,1.013,0,0,1,.1.873,1.057,1.057,0,0,1-.54.616,1.076,1.076,0,0,1-.821.085,1.344,1.344,0,0,1-.691-0.448,4.093,4.093,0,0,1-.42-1.287,3.638,3.638,0,0,0-.607-0.677c-0.063.184-.6,0.487-0.645,0.653q-0.136.6-.21,0.817a1.413,1.413,0,0,1-.655.819,1.181,1.181,0,0,1-.933.119,1.06,1.06,0,0,1-.654-0.509,0.971,0.971,0,0,1-.065-0.826,1.824,1.824,0,0,1,1.037-1.009,1.693,1.693,0,0,0,.658-0.918,2.4,2.4,0,0,0-1.06-.294,2.892,2.892,0,0,1-1.161.017,1.272,1.272,0,0,1-.756-0.578,0.951,0.951,0,0,1-.131-0.826,1.093,1.093,0,0,1,.6-0.646,1.4,1.4,0,0,1,1.014-.053,2.45,2.45,0,0,1,.955.619,2.134,2.134,0,0,0,1.015.231,1.577,1.577,0,0,0,.092-0.975,1.7,1.7,0,0,1-.305-1.409,1.09,1.09,0,0,1,.563-0.645,1.122,1.122,0,0,1,.843-0.083,1.085,1.085,0,0,1,.69.607,1.356,1.356,0,0,1,.027,1.062q-0.068.2-.274,0.7c-0.062.157,0.281,0.555,0.217,0.742a1.027,1.027,0,0,0,1.011-.225,2.792,2.792,0,0,1,.976-0.646,1.246,1.246,0,0,1,.752.01,1.1,1.1,0,0,1,.681.513,0.915,0.915,0,0,1,.08.786,1.134,1.134,0,0,1-.644.657,3.423,3.423,0,0,1-1.522.075A4.89,4.89,0,0,0,19.895,147.689Z"/>
    </g>
  </g>
  <g id="Success_icon" data-name="Success icon">
    <circle class="cls-16" cx="18" cy="181" r="11.094"/>
    <path id="Check_mark_copy_2" data-name="Check mark copy 2" class="cls-17" d="M12.348,181.186l3.926,2.365,5.766-9.57,2.7,1.626L17.6,187.462l-6.626-3.991Z"/>
  </g>
  <g id="Success_icon_black" data-name="Success icon black" class="cls-18">
    <circle class="cls-16" cx="45" cy="181" r="11.094"/>
    <path id="Check_mark_copy_2-2" data-name="Check mark copy 2" class="cls-19" d="M39.348,181.186l3.926,2.365,5.766-9.57,2.7,1.626L44.6,187.462l-6.626-3.991Z"/>
  </g>
  <path id="Rectangle_15_copy_2" data-name="Rectangle 15 copy 2" class="cls-9" d="M11.969,109.875h3.063v6.25H11.969v-6.25Z"/>
  <g id="Donload_icon_sm" data-name="Donload icon sm" class="cls-20">
    <path id="Arrow-3" data-name="Arrow" class="cls-5" d="M33.01,102.009l-0.062,4.957h-2.2L35,111.944l4.254-4.978h-2.2l-0.031-4.957H33.01Z"/>
    <path class="cls-5" d="M28,116H42"/>
  </g>
  <circle class="cls-21" cx="104" cy="109" r="9"/>
  <path id="_" data-name="&lt;&gt;" class="cls-22" d="M98.007,109.921l5.053,5.494V112.8l-3.822-3.916v-0.05l3.822-3.917v-2.611L98.007,107.8v2.118Zm11.852-2.192-5.053-5.42v2.611l3.906,3.917v0.05l-3.906,3.916v2.612l5.053-5.42v-2.266Z"/>
  <circle class="cls-23" cx="82" cy="109" r="9"/>
  <path id="_2" data-name="{}" class="cls-22" d="M77.462,109.492a0.931,0.931,0,0,1,1.1,1.018,11.159,11.159,0,0,1-.087,1.168,11.271,11.271,0,0,0-.072,1.182,1.876,1.876,0,0,0,2.185,2.036h0.521v-1.257h-0.26a0.868,0.868,0,0,1-.883-1.078c0-.255.043-0.539,0.072-0.839s0.072-.658.072-1.047a1.475,1.475,0,0,0-1.23-1.752v-0.03a1.46,1.46,0,0,0,1.23-1.737,10.137,10.137,0,0,0-.072-1.018c-0.029-.314-0.072-0.584-0.072-0.853a0.862,0.862,0,0,1,.883-1.063h0.26V102.95H80.6a1.892,1.892,0,0,0-2.2,2.021,11.271,11.271,0,0,0,.072,1.182,11.159,11.159,0,0,1,.087,1.168,0.921,0.921,0,0,1-1.1,1.018v1.153Zm8.941-1.153a0.928,0.928,0,0,1-1.1-1.018,11.187,11.187,0,0,1,.087-1.168,11.4,11.4,0,0,0,.087-1.182c0-1.408-.854-2.021-2.214-2.021H82.756v1.272h0.261a0.868,0.868,0,0,1,.882,1.063,6.189,6.189,0,0,1-.072.853,10.167,10.167,0,0,0-.072,1.018A1.46,1.46,0,0,0,85,108.893v0.03a1.475,1.475,0,0,0-1.244,1.752c0,0.389.044,0.733,0.072,1.047a6,6,0,0,1,.072.839,0.873,0.873,0,0,1-.882,1.078H82.756V114.9h0.521c1.3,0,2.2-.539,2.2-2.036a11.4,11.4,0,0,0-.087-1.182,11.187,11.187,0,0,1-.087-1.168,0.938,0.938,0,0,1,1.1-1.018v-1.153Z"/>
  <path id="Rounded_Rectangle_5" data-name="Rounded Rectangle 5" class="cls-24" d="M341.181,103.21l11.5-2.152A1.768,1.768,0,0,1,355,102.6V116.4a1.768,1.768,0,0,1-2.319,1.538l-11.5-2.152A1.591,1.591,0,0,1,340,114.22v-9.44A1.592,1.592,0,0,1,341.181,103.21Z"/>
  <path id="X" class="cls-22" d="M342.267,113.091l1.618,0.167a0.372,0.372,0,0,0,.265-0.059,0.982,0.982,0,0,0,.18-0.172l1.557-2.376a1.047,1.047,0,0,0,.108-0.2l1.835,2.913a0.848,0.848,0,0,0,.215.235,0.7,0.7,0,0,0,.359.128l2.427,0.251-3.282-4.605,3.206-4.189-2.323.232a0.6,0.6,0,0,0-.26.083,0.736,0.736,0,0,0-.2.2l-1.617,2.514c-0.033.048-.062,0.094-0.089,0.138a1.1,1.1,0,0,0-.069.137L344.518,106a0.347,0.347,0,0,0-.152-0.132,0.579,0.579,0,0,0-.265-0.017l-1.745.174,2.368,3.436Z"/>
  <circle class="cls-25" cx="60" cy="109" r="9"/>
  <rect id="Rectangle_1_copy" data-name="Rectangle 1 copy" class="cls-26" x="63" y="108" width="2" height="2"/>
  <rect id="Rectangle_1_copy_3" data-name="Rectangle 1 copy 3" class="cls-26" x="63" y="105" width="2" height="2"/>
  <rect id="Rectangle_1_copy_4" data-name="Rectangle 1 copy 4" class="cls-26" x="55" y="108" width="4" height="2"/>
  <rect id="Rectangle_1_copy_5" data-name="Rectangle 1 copy 5" class="cls-26" x="55" y="111" width="4" height="2"/>
  <rect id="Rectangle_1_copy_6" data-name="Rectangle 1 copy 6" class="cls-26" x="55" y="105" width="4" height="2"/>
  <rect id="Rectangle_1_copy_7" data-name="Rectangle 1 copy 7" class="cls-26" x="60" y="108" width="2" height="2"/>
  <rect id="Rectangle_1_copy_8" data-name="Rectangle 1 copy 8" class="cls-26" x="60" y="111" width="2" height="2"/>
  <rect id="Rectangle_1_copy_9" data-name="Rectangle 1 copy 9" class="cls-26" x="60" y="105" width="2" height="2"/>
  <path id="Polygon_1" data-name="Polygon 1" class="cls-27" d="M141.744,110.581L139.48,106.5l2.264-4.083h4.529l2.265,4.083-2.265,4.083h-4.529Z"/>
  <path id="Polygon_1_copy" data-name="Polygon 1 copy" class="cls-27" d="M149.744,115.58L147.48,111.5l2.264-4.083h4.529l2.265,4.083-2.265,4.082h-4.529Z"/>
  <path id="big_" data-name="big " class="cls-28" d="M168.105,102.208v7.636l7.094,2.73A7.315,7.315,0,1,1,168.105,102.208Z"/>
  <path id="small_slice" data-name="small slice" class="cls-29" d="M170.457,101.474c4.567,0.3,7.1,5.165,5.776,8.951l-1.426-.583c-1.355-.553-2.713-1.1-4.062-1.669a0.575,0.575,0,0,1-.312-0.393c-0.02-2.049-.013-4.1-0.011-6.146A0.91,0.91,0,0,1,170.457,101.474Z"/>
  <path id="Aa" class="cls-30" d="M197.422,114.563v-5.48a3.1,3.1,0,0,0-.67-2.2,2.674,2.674,0,0,0-2.028-.7,6.288,6.288,0,0,0-2.683.637l0.281,0.652a5.137,5.137,0,0,1,2.372-.637,1.851,1.851,0,0,1,1.538.6,2.8,2.8,0,0,1,.478,1.773v0.546l-1.569.046a5.468,5.468,0,0,0-2.907.7,2.125,2.125,0,0,0-1,1.873,2.222,2.222,0,0,0,.675,1.72,2.682,2.682,0,0,0,1.887.622,3.409,3.409,0,0,0,1.55-.33,3.909,3.909,0,0,0,1.277-1.126h0.061l0.189,1.3h0.553ZM192.5,113.6a1.535,1.535,0,0,1-.474-1.2,1.561,1.561,0,0,1,.739-1.429,5.455,5.455,0,0,1,2.475-.542l1.44-.06v0.811a2.623,2.623,0,0,1-2.843,2.849A1.92,1.92,0,0,1,192.5,113.6Z"/>
  <path id="Aa_copy" data-name="Aa copy" class="cls-31" d="M189.538,114.563h0.872l-4.366-11.126h-0.492L181.1,114.563h0.857l1.546-3.911H188Zm-4.206-8.587a12.213,12.213,0,0,0,.447-1.319q0.265,0.834.455,1.3l1.508,3.994h-3.964Z"/>
  <path class="cls-28" d="M203.5,105.55H211.5v9.9H203.5v-9.9Z"/>
  <path id="Rectangle_18_copy" data-name="Rectangle 18 copy" class="cls-29" d="M207.5,102.55H215.5v9.9H207.5v-9.9Z"/>
  <g id="A_b_Testing" data-name="A/b Testing">
    <path id="Polygon_1-2" data-name="Polygon 1" class="cls-32" d="M31.121,436.349L25.048,446.98H12.9L6.829,436.349,12.9,425.718H25.048Z"/>
    <path id="Polygon_1_copy-2" data-name="Polygon 1 copy" class="cls-33" d="M52.171,448.651L46.1,459.282H33.952l-6.073-10.631,6.073-10.632H46.1Z"/>
    <path id="A" class="cls-34" d="M22.011,439.8l-2.51-6.864H18.307L15.8,439.8h1.156l0.656-1.9h2.565l0.67,1.9h1.166Zm-4.08-2.862,0.606-1.781A10.594,10.594,0,0,0,18.9,433.9q0.046,0.188.168,0.589c0.081,0.268.144,0.465,0.19,0.589l0.629,1.861H17.931Z"/>
    <path id="B" class="cls-30" d="M37.455,452.052h2.423a2.683,2.683,0,0,0,1.755-.521,1.769,1.769,0,0,0,.631-1.443,1.64,1.64,0,0,0-.333-1.082,1.722,1.722,0,0,0-1.039-.535v-0.047a1.35,1.35,0,0,0,.872-0.5,1.6,1.6,0,0,0,.3-1,1.45,1.45,0,0,0-.617-1.3,3.725,3.725,0,0,0-2-.411H37.455v6.835Zm1.1-5.9H39.5a2.1,2.1,0,0,1,1.085.215,0.759,0.759,0,0,1,.342.7,0.858,0.858,0,0,1-.317.756,1.781,1.781,0,0,1-1,.222H38.552v-1.889Zm1.111,2.8a1.865,1.865,0,0,1,1.088.257,0.907,0.907,0,0,1,.358.79,1,1,0,0,1-.351.849,1.694,1.694,0,0,1-1.04.268H38.552v-2.164h1.111Z"/>
  </g>
  <g id="Gears">
    <path class="cls-35" d="M77.255,437.768c0.326,0.239.716,0.524,1.1,0.812a0.977,0.977,0,0,1,.247,1.516q-0.679,1.01-1.36,2.016a0.877,0.877,0,0,1-1.375.255c-0.405-.3-0.808-0.6-1.167-0.86L72.6,442.9c0.075,0.452.159,0.958,0.243,1.464a0.894,0.894,0,0,1-.776,1.168l-2.379.431a0.872,0.872,0,0,1-1.138-.849q-0.118-.709-0.238-1.42c0-.017-0.012-0.034-0.007-0.02l-2.425-.569c-0.243.361-.515,0.769-0.791,1.175a0.894,0.894,0,0,1-1.452.257q-0.966-.709-1.93-1.421a0.96,0.96,0,0,1-.243-1.436c0.282-.423.57-0.843,0.81-1.2-0.419-.732-0.807-1.421-1.209-2.1a0.272,0.272,0,0,0-.232-0.088c-0.446.068-.889,0.156-1.334,0.235a0.85,0.85,0,0,1-1.056-.766q-0.223-1.323-.441-2.647a0.877,0.877,0,0,1,.7-1.055c0.513-.1,1.027-0.187,1.507-0.274l0.546-2.539c-0.345-.253-0.736-0.538-1.125-0.826a0.977,0.977,0,0,1-.246-1.516q0.679-1.01,1.36-2.016a0.876,0.876,0,0,1,1.375-.254c0.405,0.3.808,0.6,1.167,0.86l2.105-1.394c-0.014-.087-0.035-0.23-0.062-0.372-0.395-2.1-.352-2.132,1.666-2.456,0.446-.071.889-0.159,1.333-0.24a0.864,0.864,0,0,1,1.107.827c0.074,0.446.142,0.893,0.228,1.336a0.288,0.288,0,0,0,.158.2c0.749,0.166,1.5.317,2.3,0.482,0.235-.349.512-0.765,0.793-1.178a0.885,0.885,0,0,1,1.415-.251q0.977,0.715,1.952,1.436a0.961,0.961,0,0,1,.245,1.436c-0.283.424-.57,0.844-0.824,1.219l1.334,2.2c0.074-.013.2-0.034,0.329-0.06,2.056-.419,2.065-0.379,2.382,1.763,0.068,0.456.15,0.91,0.225,1.365a0.894,0.894,0,0,1-.791,1.157c-0.427.077-.855,0.148-1.28,0.237a0.286,0.286,0,0,0-.19.166C77.556,436.146,77.412,436.931,77.255,437.768Zm-3.964-4.053a4.372,4.372,0,0,0-5.054-3.7A4.53,4.53,0,0,0,64.7,435.3a4.372,4.372,0,0,0,5.038,3.689A4.529,4.529,0,0,0,73.291,433.715Z"/>
    <path id="Shape_27_copy" data-name="Shape 27 copy" class="cls-33" d="M95.192,454.292c0.274,0.41.6,0.9,0.93,1.39a1.134,1.134,0,0,1-.359,1.789q-1.211.815-2.424,1.627a1.108,1.108,0,0,1-1.695-.329c-0.343-.507-0.679-1.018-0.981-1.471l-3.02.608c-0.105.532-.223,1.131-0.341,1.729a1.063,1.063,0,0,1-1.391.948L82.984,460a1.072,1.072,0,0,1-.952-1.446q0.165-.839.328-1.677c0-.021,0-0.044,0-0.026L79.8,455.147c-0.433.291-.921,0.622-1.411,0.949a1.129,1.129,0,0,1-1.784-.361q-0.813-1.215-1.623-2.43a1.114,1.114,0,0,1,.329-1.7c0.506-.343,1.015-0.681,1.443-0.967-0.172-1-.328-1.933-0.5-2.865a0.345,0.345,0,0,0-.231-0.2c-0.544-.122-1.092-0.223-1.639-0.333a1.047,1.047,0,0,1-.894-1.317q0.3-1.565.615-3.127a1.04,1.04,0,0,1,1.258-.856c0.633,0.121,1.264.25,1.855,0.367l1.708-2.569c-0.291-.434-0.621-0.923-0.947-1.414a1.135,1.135,0,0,1,.36-1.789q1.211-.815,2.424-1.627a1.108,1.108,0,0,1,1.695.329c0.342,0.507.679,1.018,0.981,1.471l3.02-.607c0.02-.1.057-0.271,0.086-0.44,0.438-2.5.5-2.517,2.964-1.978,0.544,0.119,1.093.218,1.64,0.327a1.062,1.062,0,0,1,.927,1.407c-0.1.526-.215,1.051-0.3,1.581a0.347,0.347,0,0,0,.1.29c0.793,0.516,1.6,1.017,2.45,1.556,0.419-.282.915-0.619,1.415-0.951a1.118,1.118,0,0,1,1.739.35q0.823,1.227,1.642,2.458a1.114,1.114,0,0,1-.327,1.7c-0.506.343-1.016,0.68-1.468,0.983l0.606,3.028c0.092,0.018.248,0.052,0.406,0.08,2.549,0.449,2.543.5,2,3.01-0.116.535-.213,1.074-0.319,1.611a1.064,1.064,0,0,1-1.4.93c-0.525-.1-1.049-0.216-1.577-0.306a0.347,0.347,0,0,0-.29.1C96.228,452.63,95.729,453.435,95.192,454.292Zm-2.852-6.249a5.39,5.39,0,1,0-6.334,4.26A5.389,5.389,0,0,0,92.34,448.043Z"/>
  </g>
  <g id="interstitial_large" data-name="interstitial large">
    <circle id="Ellipse_555_copy_2" data-name="Ellipse 555 copy 2" class="cls-36" cx="115.501" cy="444.485" r="2.813"/>
    <circle id="Ellipse_555_copy_4" data-name="Ellipse 555 copy 4" class="cls-37" cx="115.501" cy="435.485" r="2.813"/>
    <circle id="Ellipse_555_copy_5" data-name="Ellipse 555 copy 5" class="cls-37" cx="115.501" cy="426.485" r="2.813"/>
    <circle id="Ellipse_555_copy_3" data-name="Ellipse 555 copy 3" class="cls-36" cx="115.501" cy="444.485" r="1.313"/>
    <path id="line" class="cls-33" d="M121,445.02H141"/>
    <path id="line_copy" data-name="line copy" class="cls-35" d="M121.338,435.7H145.1"/>
    <path id="line_copy_2" data-name="line copy 2" class="cls-35" d="M121.338,426.7H145.1"/>
    <path id="arrow-4" data-name="arrow" class="cls-35" d="M142.663,442.513a2.075,2.075,0,0,1,1.132.69q3.982,3.752,7.974,7.493a1.4,1.4,0,0,1,.53,1.19,1.3,1.3,0,0,1-1.228,1.181c-0.731.053-1.459,0.13-2.207,0.2,0.175,0.387.344,0.757,0.512,1.128,0.356,0.783.715,1.565,1.067,2.35a1.284,1.284,0,0,1-.348,1.592,1.128,1.128,0,0,1-.261.165c-0.53.238-1.056,0.488-1.6,0.7a1.276,1.276,0,0,1-1.707-.758q-0.708-1.649-1.415-3.3c-0.022-.049-0.045-0.1-0.078-0.169l-0.134.122c-0.472.445-.94,0.895-1.418,1.333a1.28,1.28,0,0,1-1.947-.154,1.2,1.2,0,0,1-.243-0.715q-0.015-5.835-.026-11.669a1.28,1.28,0,0,1,1.122-1.347,0.43,0.43,0,0,0,.075-0.029h0.2Zm0,0a2.075,2.075,0,0,1,1.132.69q3.982,3.752,7.974,7.493a1.4,1.4,0,0,1,.53,1.19,1.3,1.3,0,0,1-1.228,1.181c-0.731.053-1.459,0.13-2.207,0.2,0.175,0.387.344,0.757,0.512,1.128,0.356,0.783.715,1.565,1.067,2.35a1.284,1.284,0,0,1-.348,1.592,1.128,1.128,0,0,1-.261.165c-0.53.238-1.056,0.488-1.6,0.7a1.276,1.276,0,0,1-1.707-.758q-0.708-1.649-1.415-3.3c-0.022-.049-0.045-0.1-0.078-0.169l-0.134.122c-0.472.445-.94,0.895-1.418,1.333a1.28,1.28,0,0,1-1.947-.154,1.2,1.2,0,0,1-.243-0.715q-0.015-5.835-.026-11.669a1.28,1.28,0,0,1,1.122-1.347,0.43,0.43,0,0,0,.075-0.029h0.2Z"/>
    <path id="Shape_20_copy" data-name="Shape 20 copy" class="cls-38" d="M259.5,218l5.5-10H254l5.5,10"/>
  </g>
  <path id="link" class="cls-33" d="M180.99,433.857l-4.908.224a75.26,75.26,0,0,1,5.135-7.913,6.716,6.716,0,0,1,9.222-.874,7.552,7.552,0,0,1,2.445,9.409A92.341,92.341,0,0,1,187.565,444a7.019,7.019,0,0,1-9.121,2.254,2.077,2.077,0,0,1-1.231-2.662,1.875,1.875,0,0,1,2.667-.915c2.287,0.875,3.841.376,5.078-1.722,1.4-2.37,2.745-4.773,4.107-7.165a5.933,5.933,0,0,0,.417-0.9,3.757,3.757,0,0,0-1.386-4.543,3.351,3.351,0,0,0-4.476.931,26.192,26.192,0,0,0-1.729,2.834C181.524,432.754,181.211,433.427,180.99,433.857Zm-0.832,15.3,4.256-.2a76.287,76.287,0,0,1-3.79,7.167,6.973,6.973,0,0,1-9.475,1.915,7.558,7.558,0,0,1-2.97-9.466,79.729,79.729,0,0,1,5.628-9.821,6.973,6.973,0,0,1,9-1.938,2.064,2.064,0,0,1,1.155,2.592,1.872,1.872,0,0,1-2.652.951c-2.292-.877-3.865-0.39-5.093,1.685q-2.132,3.6-4.147,7.285a5.235,5.235,0,0,0-.609,1.991,3.336,3.336,0,0,0,1.587,3.335,3.053,3.053,0,0,0,3.669-.168,6.15,6.15,0,0,0,1.49-1.743C178.969,451.48,179.624,450.151,180.158,449.159Z"/>
  <g id="interstitial_tiny" data-name="interstitial tiny" class="cls-39">
    <path class="cls-29" d="M124.452,113.5v-0.052h7.1V113.5h-7.1Z"/>
    <path id="Shape_72_copy" data-name="Shape 72 copy" class="cls-28" d="M124.452,109.54v-0.111h7.1v0.111h-7.1Z"/>
    <path id="Shape_72_copy_2" data-name="Shape 72 copy 2" class="cls-28" d="M124.452,105.505v-0.014h7.1v0.014h-7.1Z"/>
    <rect id="Rounded_Rectangle_1" data-name="Rounded Rectangle 1" class="cls-40" x="120" y="112" width="2" height="2" rx="1" ry="1"/>
    <rect id="Rounded_Rectangle_1_copy" data-name="Rounded Rectangle 1 copy" class="cls-41" x="120" y="108" width="2" height="2" rx="1" ry="1"/>
    <rect id="Rounded_Rectangle_1_copy_2" data-name="Rounded Rectangle 1 copy 2" class="cls-41" x="120" y="104" width="2" height="2" rx="1" ry="1"/>
  </g>
  <g id="big_squares" data-name="big squares">
    <path id="Rectangle_19_copy_4" data-name="Rectangle 19 copy 4" class="cls-28" d="M272.44,111.44h5.12v5.12h-5.12v-5.12Z"/>
    <path id="Rectangle_19_copy_5" data-name="Rectangle 19 copy 5" class="cls-28" d="M274.348,113.348h1.3v1.3h-1.3v-1.3Z"/>
    <path id="Rectangle_19_copy_6" data-name="Rectangle 19 copy 6" class="cls-28" d="M272.44,101.44h5.12v5.12h-5.12v-5.12Z"/>
    <path id="Rectangle_19_copy_7" data-name="Rectangle 19 copy 7" class="cls-28" d="M274.348,103.348h1.3v1.3h-1.3v-1.3Z"/>
    <path id="Rectangle_19_copy_8" data-name="Rectangle 19 copy 8" class="cls-28" d="M281.44,101.44h5.12v5.12h-5.12v-5.12Z"/>
    <path id="Rectangle_19_copy_9" data-name="Rectangle 19 copy 9" class="cls-28" d="M283.348,103.348h1.3v1.3h-1.3v-1.3Z"/>
  </g>
  <path id="Rectangle_20_copy_7" data-name="Rectangle 20 copy 7" class="cls-29" d="M273.656,109.781h2.688v0.272h-2.688v-0.272Z"/>
  <path id="Rectangle_20_copy_8" data-name="Rectangle 20 copy 8" class="cls-29" d="M281.656,111.781h2.688v0.272h-2.688v-0.272Z"/>
  <path id="Rectangle_20_copy_9" data-name="Rectangle 20 copy 9" class="cls-29" d="M281.656,111.781h2.688v0.272h-2.688v-0.272Z"/>
  <path id="Rectangle_20_copy_12" data-name="Rectangle 20 copy 12" class="cls-29" d="M283.656,113.781h2.688v0.272h-2.688v-0.272Z"/>
  <path id="Rectangle_20_copy_13" data-name="Rectangle 20 copy 13" class="cls-29" d="M280.656,114.781h2.688v0.272h-2.688v-0.272Z"/>
  <path id="Rectangle_20_copy_14" data-name="Rectangle 20 copy 14" class="cls-29" d="M272.656,108.781h2.688v0.272h-2.688v-0.272Z"/>
  <path id="Rectangle_20_copy_20" data-name="Rectangle 20 copy 20" class="cls-29" d="M277.656,108.781h2.688v0.272h-2.688v-0.272Z"/>
  <path id="Rectangle_20_copy_10" data-name="Rectangle 20 copy 10" class="cls-29" d="M279.3,104.527H279.7v4.946H279.3v-4.946Z"/>
  <path id="Rectangle_20_copy_11" data-name="Rectangle 20 copy 11" class="cls-29" d="M284.3,111.527H284.7v4.945H284.3v-4.945Z"/>
  <path id="Rectangle_20_copy_15" data-name="Rectangle 20 copy 15" class="cls-29" d="M279.3,101.527H279.7v4.945H279.3v-4.945Z"/>
  <path id="Rectangle_20_copy_16" data-name="Rectangle 20 copy 16" class="cls-29" d="M285.3,109.527H285.7v4.946H285.3v-4.946Z"/>
  <path id="Rectangle_20_copy_17" data-name="Rectangle 20 copy 17" class="cls-29" d="M280.3,108.527H280.7v4.946H280.3v-4.946Z"/>
  <path id="Rectangle_20_copy_18" data-name="Rectangle 20 copy 18" class="cls-29" d="M282.348,108.253h0.3v2.494h-0.3v-2.494Z"/>
  <path id="Rectangle_20_copy_19" data-name="Rectangle 20 copy 19" class="cls-29" d="M280.348,113.253h0.3v2.494h-0.3v-2.494Z"/>
  <path id="Buffer_icon" data-name="Buffer icon" class="cls-42" d="M309,105.14v0.122a1.615,1.615,0,0,1-.241.166q-3.138,1.441-6.279,2.875a1.114,1.114,0,0,1-.96,0q-3.127-1.428-6.251-2.863a1.956,1.956,0,0,1-.269-0.178V105.14a2.3,2.3,0,0,1,.281-0.179q1.981-.913,3.968-1.818c0.856-.387,1.717-0.762,2.575-1.143h0.352c0.278,0.115.56,0.221,0.834,0.346q2.754,1.256,5.5,2.519A1.341,1.341,0,0,1,309,105.14Zm-14,7.6a2.235,2.235,0,0,1,.269-0.178c0.346-.166.7-0.324,1.047-0.483a1.156,1.156,0,0,1,1,0q2.11,0.965,4.221,1.929a1.082,1.082,0,0,0,.93,0c1.424-.648,2.844-1.3,4.268-1.949a1.073,1.073,0,0,1,.894,0c0.391,0.168.776,0.349,1.16,0.531a1.3,1.3,0,0,1,.213.153v0.122a2.3,2.3,0,0,1-.281.179q-1.981.913-3.968,1.817c-0.856.388-1.717,0.763-2.575,1.144h-0.352c-0.278-.115-0.56-0.221-0.834-0.346q-2.754-1.256-5.5-2.519A1.341,1.341,0,0,1,295,112.86v-0.122Zm14-3.687a1.153,1.153,0,0,1-.208.158q-2.07.954-4.145,1.9c-0.73.334-1.458,0.672-2.191,1a1.077,1.077,0,0,1-.912,0q-2.374-1.08-4.746-2.169c-0.53-.243-1.062-0.483-1.59-0.731a1.241,1.241,0,0,1-.208-0.158v-0.1a1.388,1.388,0,0,1,.227-0.166c0.356-.171.716-0.331,1.075-0.5a1.165,1.165,0,0,1,1.016,0q2.111,0.965,4.222,1.929a1.074,1.074,0,0,0,.92,0q2.127-.968,4.25-1.941a1.11,1.11,0,0,1,.941,0q0.584,0.258,1.16.532a1.064,1.064,0,0,1,.189.15v0.1Z"/>
  <g id="Plus_black" data-name="Plus black">
    <rect class="cls-43" x="104" y="207" width="2" height="10"/>
    <rect id="Rectangle_17_copy" data-name="Rectangle 17 copy" class="cls-43" x="100" y="211" width="10" height="2"/>
  </g>
  <g id="minus_black" data-name="minus black">
    <rect id="Rectangle_17_copy-2" data-name="Rectangle 17 copy" class="cls-43" x="273" y="211" width="12" height="2"/>
  </g>
  <g id="Plus_black_copy" data-name="Plus black copy">
    <rect class="cls-23" x="31" y="362" width="2" height="8"/>
    <rect id="Rectangle_17_copy-3" data-name="Rectangle 17 copy" class="cls-23" x="28" y="365" width="8" height="2"/>
    <path id="sub_1-2" data-name="sub 1" class="cls-44" d="M13.25,404.424a4.532,4.532,0,0,1-.523-0.107c-0.356-.115-0.708-0.246-1.058-0.379-0.846-.322-1.69-0.65-2.535-0.975-0.542-.208-1.088-0.408-1.625-0.625a1.568,1.568,0,0,1-.81-2.057c0.421-.89.85-1.778,1.275-2.667,0.075-.157.15-0.314,0.223-0.472a0.858,0.858,0,0,1,1.106-.487,4.019,4.019,0,0,1,.675.323,6.634,6.634,0,0,0,5.58.361c0.427-.169.82-0.417,1.237-0.611a1.1,1.1,0,0,1,1.369.21,4.711,4.711,0,0,1,.434.676q0.833,1.409,1.66,2.82a1.26,1.26,0,0,1-.643,1.815c-0.994.406-1.991,0.8-2.987,1.2-0.636.256-1.269,0.518-1.91,0.762a5.858,5.858,0,0,1-.663.172c-0.048.013-.1,0.024-0.144,0.036H13.25Zm0.33-15.853c0.182,0.031.365,0.056,0.545,0.095a3.716,3.716,0,0,1,2.1,1.241,3.573,3.573,0,0,1,.41,4.068,3.67,3.67,0,0,1-1.361,1.379,3.828,3.828,0,0,1-2.138.534,3.733,3.733,0,0,1-2.538-1.083,3.457,3.457,0,0,1-1.088-2.695,3.534,3.534,0,0,1,1.562-2.838,3.828,3.828,0,0,1,1.833-.681c0.034,0,.067-0.014.1-0.02H13.58Zm0,0c0.182,0.031.365,0.056,0.545,0.095a3.716,3.716,0,0,1,2.1,1.241,3.573,3.573,0,0,1,.41,4.068,3.67,3.67,0,0,1-1.361,1.379,3.828,3.828,0,0,1-2.138.534,3.733,3.733,0,0,1-2.538-1.083,3.457,3.457,0,0,1-1.088-2.695,3.534,3.534,0,0,1,1.562-2.838,3.828,3.828,0,0,1,1.833-.681c0.034,0,.067-0.014.1-0.02H13.58Z"/>
    <path class="cls-44" d="M35.3,394.12H29.375v-2.553L24,396.5l5.371,4.933V398.88H35.3v-4.76Z"/>
  </g>
  <g id="X_black" data-name="X black">
    <path class="cls-45" d="M70.05,208.464l1.414-1.414,8.485,8.486-1.414,1.414Z"/>
    <path id="Rectangle_17_copy-4" data-name="Rectangle 17 copy" class="cls-45" d="M70.05,215.536l8.485-8.486,1.414,1.414-8.485,8.486Z"/>
  </g>
  <g id="Plus">
    <rect class="cls-46" x="44" y="207" width="2" height="10"/>
    <rect id="Rectangle_17_copy-5" data-name="Rectangle 17 copy" class="cls-46" x="40" y="211" width="10" height="2"/>
  </g>
  <g id="X_white" data-name="X white">
    <path class="cls-22" d="M11.05,208.464l1.414-1.414,8.485,8.486-1.414,1.414Z"/>
    <path id="Rectangle_17_copy-6" data-name="Rectangle 17 copy" class="cls-22" d="M11.05,215.536l8.485-8.486,1.414,1.414-8.485,8.486Z"/>
  </g>
  <g id="arrow_below_next" data-name="arrow below next">
    <path class="cls-14" d="M130,208v6h7"/>
    <path class="cls-45" d="M142,214l-7-4v8l7-4"/>
  </g>
  <g id="new_window" data-name="new window" class="cls-47">
    <path class="cls-48" d="M8,408H6v7h7v-2"/>
    <path class="cls-48" d="M10.429,407.417h5.143v4.166H10.429v-4.166Z"/>
  </g>
  <g id="shortlink_manipulation" data-name="shortlink manipulation" class="cls-49">
    <g id="Clipboard">
      <path id="Rounded_Rectangle_3-2" data-name="Rounded Rectangle 3" class="cls-50" d="M228.5,102.469h10a1,1,0,0,1,1,1v12.062a1,1,0,0,1-1,1h-10a1,1,0,0,1-1-1V103.469A1,1,0,0,1,228.5,102.469Z"/>
      <path id="Rounded_Rectangle_3_copy" data-name="Rounded Rectangle 3 copy" class="cls-50" d="M232.412,100.5h2.176a1,1,0,0,1,0,2h-2.176A1,1,0,0,1,232.412,100.5Z"/>
      <path id="Rounded_Rectangle_3_copy_2" data-name="Rounded Rectangle 3 copy 2" class="cls-50" d="M232.149,102.333h2.7a0.667,0.667,0,0,1,0,1.334h-2.7A0.667,0.667,0,0,1,232.149,102.333Z"/>
      <path class="cls-50" d="M229,106.5h9"/>
      <path id="Shape_1_copy" data-name="Shape 1 copy" class="cls-50" d="M229,108.5h9"/>
      <path id="Shape_1_copy_2" data-name="Shape 1 copy 2" class="cls-50" d="M229,110.5h6.75"/>
    </g>
    <g id="neutered_copy_2" data-name="neutered copy 2">
      <path id="line_bottomn" data-name="line bottomn" class="cls-50" d="M250.24,110.07l6.249,2.848"/>
      <path id="line_top" data-name="line top" class="cls-50" d="M250.35,107.879l6.249-2.848"/>
      <circle class="cls-51" cx="248" cy="108.906" r="2.531"/>
      <circle id="Ellipse_9_copy" data-name="Ellipse 9 copy" class="cls-51" cx="258.844" cy="103.984" r="2.531"/>
      <circle id="Ellipse_9_copy_2" data-name="Ellipse 9 copy 2" class="cls-51" cx="258.906" cy="113.906" r="2.625"/>
    </g>
  </g>
  <g id="Gears_copy" data-name="Gears copy">
    <g id="new_advanceed" data-name="new advanceed">
      <circle id="Ellipse_10_copy_2" data-name="Ellipse 10 copy 2" class="cls-52" cx="329.5" cy="114.5" r="1.125"/>
      <circle id="Ellipse_10_copy_3" data-name="Ellipse 10 copy 3" class="cls-52" cx="329.5" cy="104.5" r="1.125"/>
      <path class="cls-27" d="M314,109h5c3.625,0,1.875-5,5-5h5"/>
      <path id="Shape_716_copy" data-name="Shape 716 copy" class="cls-27" d="M314,109h5c3.625,0,1.875,5,5,5h5"/>
    </g>
  </g>
  <path class="cls-53" d="M28.725,469.187l1.05,1.028L8.257,491.3l-1.05-1.029Z"/>
  <path id="Shape_1_copy-2" data-name="Shape 1 copy" class="cls-53" d="M7.208,470.729l1.05-1.028,21.517,21.084-1.05,1.028Z"/>
  <path id="Rounded_Rectangle_4" data-name="Rounded Rectangle 4" class="cls-54" d="M296.481,199.481h21.038a2,2,0,0,1,2,2v21.038a2,2,0,0,1-2,2H296.481a2,2,0,0,1-2-2V201.481A2,2,0,0,1,296.481,199.481Z"/>
  <circle class="cls-55" cx="301.094" cy="219" r="2.094"/>
  <path id="Ellipse_11_copy" data-name="Ellipse 11 copy" class="cls-56" d="M307,217a2,2,0,1,1-2.1,2A2.051,2.051,0,0,1,307,217Z"/>
  <path id="Ellipse_11_copy_2" data-name="Ellipse 11 copy 2" class="cls-57" d="M312.9,217a2,2,0,1,1-2.1,2A2.051,2.051,0,0,1,312.9,217Z"/>
</svg>
