<svg xmlns="http://www.w3.org/2000/svg" width="181" height="76" viewBox="0 0 181 76">
  <defs>
    <style>
      .cls-1 {
        fill: #59595b;
      }

      .cls-1, .cls-2, .cls-3 {
        fill-rule: evenodd;
      }

      .cls-2 {
        fill: #16b9ec;
      }

      .cls-3 {
        fill: #787979;
      }
    </style>
  </defs>
  <path id="link" class="cls-1" d="M125.488,47.515V14h-3.5V47.515h3.5Zm6.246-32.493h-3.886v3.843h3.886V15.021ZM131.54,47.515h-3.5V23.2h3.5V47.515ZM144.469,22.8a22.431,22.431,0,0,0-3.571.292,25.311,25.311,0,0,0-3.013.681,23.361,23.361,0,0,0-2.283.794c-0.624.251-1.085,0.462-1.385,0.616V47.515h3.5V27.279a25.809,25.809,0,0,1,2.875-.673,21.27,21.27,0,0,1,3.49-.3,10.05,10.05,0,0,1,3.474.519,4.588,4.588,0,0,1,1.968,1.321A4.347,4.347,0,0,1,150.4,29.9a7.434,7.434,0,0,1,.2,1.808V47.515h3.5V31.706a9.669,9.669,0,0,0-1.133-4.816,7.384,7.384,0,0,0-3.272-3.032,11.933,11.933,0,0,0-5.215-1.054m20.87,11.577,10.349-11.139h-4.762L160.043,35.16V14h-3.5V47.515h3.5V40.121l3.012-3.259,9.28,10.653H177Z"/>
  <path id="genbius" class="cls-2" d="M19.625,42.067q-0.729.146-1.6,0.243a17.153,17.153,0,0,1-1.895.1,7.46,7.46,0,0,1-2.2-.276,3.578,3.578,0,0,1-1.668-1.038A5.006,5.006,0,0,1,11.2,38.962a13.92,13.92,0,0,1-.373-3.559,13.383,13.383,0,0,1,.575-4.345,4.431,4.431,0,0,1,1.62-2.319,4.363,4.363,0,0,1,2.518-.681,8.023,8.023,0,0,1,2.033.219,2.9,2.9,0,0,1,1.474.827,2.4,2.4,0,0,1,.575,1.678V42.067ZM15.544,22.853a12.857,12.857,0,0,0-1.879.138,11.376,11.376,0,0,0-2.259.592A9.38,9.38,0,0,0,9.09,24.864a8.935,8.935,0,0,0-2.057,2.221,11.541,11.541,0,0,0-1.474,3.4A18.979,18.979,0,0,0,5,35.306a15.022,15.022,0,0,0,1.271,6.469A8.865,8.865,0,0,0,9.964,45.8a12.078,12.078,0,0,0,5.968,1.378,15.7,15.7,0,0,0,1.862-.105c0.616-.065,1.223-0.162,1.83-0.284V48.1a6.817,6.817,0,0,1-.049.981,2.5,2.5,0,0,1-.324.989,2.437,2.437,0,0,1-.874.876,5.307,5.307,0,0,1-1.709.616,14.156,14.156,0,0,1-2.826.235,21.67,21.67,0,0,1-3.628-.3,18.8,18.8,0,0,1-2.688-.673v5.2a21.689,21.689,0,0,0,3.061.689A27.224,27.224,0,0,0,14.523,57a16.879,16.879,0,0,0,4.794-.608,9.251,9.251,0,0,0,3.166-1.573,7.348,7.348,0,0,0,1.871-2.156,8.437,8.437,0,0,0,.883-2.367,10.9,10.9,0,0,0,.219-2.2V30.83a8.025,8.025,0,0,0-.518-2.87A7.116,7.116,0,0,0,23.253,25.4a8.338,8.338,0,0,0-3.061-1.84A13.848,13.848,0,0,0,15.544,22.853Zm22.291,4.718a4.14,4.14,0,0,1,2.041.5,4.619,4.619,0,0,1,1.466,1.338,6.805,6.805,0,0,1,.947,1.913,10.664,10.664,0,0,1,.453,2.23H32.976a10.43,10.43,0,0,1,.777-3.478,4.075,4.075,0,0,1,1.62-1.913,4.679,4.679,0,0,1,2.462-.592m1.312,15.323a11.358,11.358,0,0,1-2.105-.17,5.324,5.324,0,0,1-1.911-.73,4.172,4.172,0,0,1-1.441-1.605,7.051,7.051,0,0,1-.713-2.8h15.6c0.049-.486.073-0.973,0.081-1.475s0.016-1.005.016-1.54a15.664,15.664,0,0,0-.4-3.559,12.279,12.279,0,0,0-1.231-3.211A9.856,9.856,0,0,0,44.921,25.2a9.459,9.459,0,0,0-3.045-1.751,12.178,12.178,0,0,0-4.041-.64,11.917,11.917,0,0,0-5.037.989,8.644,8.644,0,0,0-3.353,2.716,11.587,11.587,0,0,0-1.863,4.07A20.1,20.1,0,0,0,27,35.646a17.494,17.494,0,0,0,.713,5.237,10.223,10.223,0,0,0,1.871,3.535,8.981,8.981,0,0,0,2.64,2.14,11.147,11.147,0,0,0,3.029,1.062,15.768,15.768,0,0,0,3.02.284,21.538,21.538,0,0,0,3.6-.3,19.209,19.209,0,0,0,3.045-.779,17.323,17.323,0,0,0,2.494-1.111V41A18.9,18.9,0,0,1,39.147,42.894ZM85.829,19.934l2.431-5.351H82.284l-2.431,5.351h5.976ZM67.443,47.462l-0.024.053h0.024V47.462Zm5.879-.107L84.278,23.242H78.447l-5.125,11.28V47.355ZM94.656,23.242V37.3a7.931,7.931,0,0,1-.51,3.154,3.455,3.455,0,0,1-1.652,1.783,6.375,6.375,0,0,1-2.939.559,6.3,6.3,0,0,1-2.907-.559,3.457,3.457,0,0,1-1.636-1.783A7.924,7.924,0,0,1,84.5,37.3V25.437L78.7,38.2a12.318,12.318,0,0,0,1.23,4.452,9.041,9.041,0,0,0,3.741,3.892,13.438,13.438,0,0,0,11.791,0,9.031,9.031,0,0,0,3.757-3.892,13.43,13.43,0,0,0,1.312-6.129V23.242H94.656Zm13.46,6.664a1.541,1.541,0,0,1,.543-1.224,3.208,3.208,0,0,1,1.474-.632,10.171,10.171,0,0,1,2.162-.187,14.452,14.452,0,0,1,3.1.324,12.262,12.262,0,0,1,2.486.843V24.6a13.1,13.1,0,0,0-3.045-1.281,13.606,13.606,0,0,0-3.562-.47,12.123,12.123,0,0,0-3.434.47,8.619,8.619,0,0,0-2.867,1.411,6.72,6.72,0,0,0-1.96,2.367,7.445,7.445,0,0,0-.728,3.34,6.651,6.651,0,0,0,.64,3,5.884,5.884,0,0,0,1.651,1.978,9.639,9.639,0,0,0,2.26,1.265c0.818,0.324,1.644.6,2.462,0.835s1.571,0.478,2.259.721a5.11,5.11,0,0,1,1.652.9,1.756,1.756,0,0,1,.639,1.37,2.971,2.971,0,0,1-.105.916,1.386,1.386,0,0,1-.51.746,2.966,2.966,0,0,1-1.206.494,11.252,11.252,0,0,1-2.211.179,12.258,12.258,0,0,1-2.616-.292,12.4,12.4,0,0,1-2.3-.779,12.592,12.592,0,0,1-1.935-1.07v5.2a15.009,15.009,0,0,0,3.458,1.435,15.685,15.685,0,0,0,4.219.559,11.716,11.716,0,0,0,4.8-.941,7.477,7.477,0,0,0,3.126-2.529A6.338,6.338,0,0,0,119.68,40.8a8.981,8.981,0,0,0-.64-3.535,6.44,6.44,0,0,0-1.652-2.311,8.929,8.929,0,0,0-2.259-1.427,18.791,18.791,0,0,0-2.462-.892c-0.817-.227-1.571-0.454-2.259-0.673a5.418,5.418,0,0,1-1.652-.794,1.553,1.553,0,0,1-.64-1.265M56.2,47.515V33.457a7.925,7.925,0,0,1,.51-3.154,3.454,3.454,0,0,1,1.652-1.783,6.378,6.378,0,0,1,2.939-.56,6.3,6.3,0,0,1,2.907.56A3.456,3.456,0,0,1,65.848,30.3a7.926,7.926,0,0,1,.51,3.154V47.515h5.879V34.235a13.43,13.43,0,0,0-1.312-6.129,9.04,9.04,0,0,0-3.741-3.891,13.439,13.439,0,0,0-11.79,0,9.03,9.03,0,0,0-3.757,3.891,13.425,13.425,0,0,0-1.312,6.129V47.515H56.2Z"/>
  <path id="Browser_Plugin_copy" data-name="Browser Plugin copy" class="cls-3" d="M88.226,63.346h3.122a3.471,3.471,0,0,0,2.268-.668,2.274,2.274,0,0,0,.811-1.858A2.063,2.063,0,0,0,92.388,58.7V58.635a2.141,2.141,0,0,0,1.294-.665,1.919,1.919,0,0,0,.444-1.3,1.859,1.859,0,0,0-.8-1.67,4.8,4.8,0,0,0-2.577-.528H88.226v8.876Zm1.04-7.984H90.8a3.39,3.39,0,0,1,1.714.331,1.168,1.168,0,0,1,.539,1.078,1.319,1.319,0,0,1-.483,1.157,2.808,2.808,0,0,1-1.585.343H89.267V55.363Zm1.781,3.782a3.013,3.013,0,0,1,1.7.389,1.375,1.375,0,0,1,.56,1.214,1.53,1.53,0,0,1-.548,1.3,2.675,2.675,0,0,1-1.631.416H89.267V59.145h1.781Zm7.114-2.222a2.932,2.932,0,0,0-.9,1H97.213L97.1,56.692H96.258v6.654h1.016v-3.57a2.379,2.379,0,0,1,.578-1.633,1.794,1.794,0,0,1,1.392-.656,3.49,3.49,0,0,1,.735.091l0.141-.935a4.007,4.007,0,0,0-.8-0.073A2.037,2.037,0,0,0,98.161,56.923ZM106.4,57.5a2.849,2.849,0,0,0-2.237-.929,2.914,2.914,0,0,0-2.277.908,3.645,3.645,0,0,0-.82,2.535,4.16,4.16,0,0,0,.379,1.834,2.775,2.775,0,0,0,1.078,1.2,3.04,3.04,0,0,0,1.6.419,2.922,2.922,0,0,0,2.283-.914A4.273,4.273,0,0,0,106.4,57.5Zm-3.773.577a1.793,1.793,0,0,1,1.5-.65,1.825,1.825,0,0,1,1.528.659,3.078,3.078,0,0,1,.517,1.928,3.129,3.129,0,0,1-.517,1.946,2.052,2.052,0,0,1-3.027,0,3.138,3.138,0,0,1-.514-1.943A3.105,3.105,0,0,1,102.625,58.077Zm13.13,5.27,1.855-6.654h-1.053q-1.17,4.444-1.276,4.9a6.184,6.184,0,0,0-.132.674H115.1a12.933,12.933,0,0,0-.465-1.755l-1.2-3.819h-1.1L111.1,60.511q-0.109.322-.26,0.871t-0.217.9h-0.049a15.355,15.355,0,0,0-.389-1.767q-0.339-1.311-.988-3.819h-1.065l1.83,6.654h1.175l1.267-3.892q0.183-.577.428-1.639h0.049q0.319,1.269.435,1.627l1.23,3.9h1.206Zm7.037-2.914a4.395,4.395,0,0,0-1.613-.868A9.968,9.968,0,0,1,120,59.072a1.358,1.358,0,0,1-.444-0.358,0.754,0.754,0,0,1-.137-0.455,0.693,0.693,0,0,1,.367-0.619,2.12,2.12,0,0,1,1.089-.225,4.9,4.9,0,0,1,1.831.413l0.361-.82a5.4,5.4,0,0,0-2.118-.437,3.129,3.129,0,0,0-1.83.471,1.489,1.489,0,0,0-.667,1.284,1.514,1.514,0,0,0,.193.783,1.8,1.8,0,0,0,.587.586,7.206,7.206,0,0,0,1.331.6,5.353,5.353,0,0,1,1.325.653,0.864,0.864,0,0,1-.088,1.433,2.44,2.44,0,0,1-1.224.252,4.357,4.357,0,0,1-1.068-.14,5.041,5.041,0,0,1-1.038-.383v0.935a4.29,4.29,0,0,0,2.081.419,3.3,3.3,0,0,0,1.959-.5,1.662,1.662,0,0,0,.7-1.433A1.522,1.522,0,0,0,122.792,60.432Zm6.128,2.935a5.415,5.415,0,0,0,1.02-.331v-0.9a5.44,5.44,0,0,1-2.143.449,2.072,2.072,0,0,1-1.594-.607,2.619,2.619,0,0,1-.6-1.779h4.621V59.564a3.14,3.14,0,0,0-.734-2.17,2.541,2.541,0,0,0-2-.823,2.664,2.664,0,0,0-2.145.947,3.84,3.84,0,0,0-.8,2.556,3.463,3.463,0,0,0,.86,2.5,3.1,3.1,0,0,0,2.348.9A5.759,5.759,0,0,0,128.92,63.368Zm-0.211-5.446a2.2,2.2,0,0,1,.429,1.46h-3.507a2.392,2.392,0,0,1,.566-1.445,1.666,1.666,0,0,1,1.288-.522A1.512,1.512,0,0,1,128.709,57.922Zm5.217-1a2.934,2.934,0,0,0-.9,1h-0.049l-0.116-1.233h-0.839v6.654h1.016v-3.57a2.382,2.382,0,0,1,.578-1.633,1.8,1.8,0,0,1,1.393-.656,3.482,3.482,0,0,1,.734.091l0.141-.935a4.008,4.008,0,0,0-.8-0.073A2.033,2.033,0,0,0,133.926,56.923Zm9.067-2.453h-2.32v8.876h1.041V59.855h1.053a4.225,4.225,0,0,0,2.653-.725,2.478,2.478,0,0,0,.927-2.073q0-2.586-3.354-2.586h0Zm-1.279.892h1.163a3.059,3.059,0,0,1,1.812.431,1.528,1.528,0,0,1,.581,1.311,1.628,1.628,0,0,1-.618,1.421,3.5,3.5,0,0,1-2,.443h-0.936V55.363Zm7.432-1.463H148.13v9.447h1.016V53.9Zm2.144,2.793v4.353a2.443,2.443,0,0,0,.609,1.846,2.577,2.577,0,0,0,1.833.577A2.935,2.935,0,0,0,155,63.207a2.02,2.02,0,0,0,.866-0.753h0.055l0.147,0.892H156.9V56.692h-1.016v3.5a2.864,2.864,0,0,1-.486,1.864,1.918,1.918,0,0,1-1.54.571,1.529,1.529,0,0,1-1.169-.4,1.727,1.727,0,0,1-.373-1.214V56.692H151.29Zm11,0a3.438,3.438,0,0,0-.949-0.121,2.714,2.714,0,0,0-1.873.592,2.147,2.147,0,0,0-.661,1.685,2.105,2.105,0,0,0,.328,1.166,1.809,1.809,0,0,0,.847.723,2.065,2.065,0,0,0-.618.528,1.07,1.07,0,0,0-.2.637,0.945,0.945,0,0,0,.175.565,1.058,1.058,0,0,0,.431.358,2,2,0,0,0-1.1.6,1.53,1.53,0,0,0-.392,1.05,1.565,1.565,0,0,0,.713,1.372,3.585,3.585,0,0,0,2.029.486,4.813,4.813,0,0,0,2.607-.58,1.885,1.885,0,0,0,.894-1.685,1.576,1.576,0,0,0-.585-1.324,2.672,2.672,0,0,0-1.674-.455h-1.187a1.664,1.664,0,0,1-.777-0.131,0.434,0.434,0,0,1-.227-0.4,0.992,0.992,0,0,1,.649-0.856,3.1,3.1,0,0,0,.563.048,2.731,2.731,0,0,0,1.849-.583,1.962,1.962,0,0,0,.673-1.56,2.1,2.1,0,0,0-.135-0.774,2.129,2.129,0,0,0-.306-0.556l1.243-.146V56.692h-2.32Zm-2.644,6.83a1.613,1.613,0,0,1,1.077-.328h1.218a2.633,2.633,0,0,1,1.267.209,0.813,0.813,0,0,1,.337.75,1.16,1.16,0,0,1-.615,1.029,3.7,3.7,0,0,1-1.9.379,2.552,2.552,0,0,1-1.316-.279,0.9,0.9,0,0,1-.459-0.82A1.167,1.167,0,0,1,159.646,63.522Zm0.551-5.834a1.5,1.5,0,0,1,1.1-.383,1.328,1.328,0,0,1,1.506,1.5,1.291,1.291,0,0,1-1.487,1.433,1.6,1.6,0,0,1-1.108-.358,1.35,1.35,0,0,1-.4-1.056A1.533,1.533,0,0,1,160.2,57.688Zm6.868-1h-1.016v6.654h1.016V56.692Zm-0.93-1.3a0.626,0.626,0,0,0,.851,0,0.665,0.665,0,0,0,.177-0.507,0.655,0.655,0,0,0-.177-0.5,0.638,0.638,0,0,0-.851,0,0.667,0.667,0,0,0-.171.507A0.679,0.679,0,0,0,166.135,55.4Zm8.754,7.95V59.005a2.456,2.456,0,0,0-.612-1.855,2.561,2.561,0,0,0-1.824-.58,2.867,2.867,0,0,0-1.255.27,2.071,2.071,0,0,0-.875.762h-0.049l-0.165-.911h-0.826v6.654H170.3V59.855a2.836,2.836,0,0,1,.489-1.864,1.939,1.939,0,0,1,1.543-.565,1.529,1.529,0,0,1,1.169.4,1.727,1.727,0,0,1,.373,1.214v4.3h1.016Z"/>
</svg>
