<svg xmlns="http://www.w3.org/2000/svg" width="181" height="76" viewBox="0 0 181 76">
  <defs>
    <style>
      .cls-1 {
        fill: #59595b;
      }

      .cls-1, .cls-2, .cls-3 {
        fill-rule: evenodd;
      }

      .cls-2 {
        fill: #16b9ec;
      }

      .cls-3 {
        fill: #787979;
      }
    </style>
  </defs>
  <path id="link" class="cls-1" d="M125.488,47.515V14h-3.5V47.515h3.5Zm6.246-32.493h-3.886v3.843h3.886V15.021ZM131.54,47.515h-3.5V23.2h3.5V47.515ZM144.469,22.8a22.431,22.431,0,0,0-3.571.292,25.311,25.311,0,0,0-3.013.681,23.361,23.361,0,0,0-2.283.794c-0.624.251-1.085,0.462-1.385,0.616V47.515h3.5V27.279a25.809,25.809,0,0,1,2.875-.673,21.27,21.27,0,0,1,3.49-.3,10.05,10.05,0,0,1,3.474.519,4.588,4.588,0,0,1,1.968,1.321A4.346,4.346,0,0,1,150.4,29.9a7.434,7.434,0,0,1,.2,1.808V47.515h3.5V31.706a9.659,9.659,0,0,0-1.134-4.816,7.376,7.376,0,0,0-3.271-3.032,11.933,11.933,0,0,0-5.215-1.054m20.87,11.577,10.349-11.139h-4.762L160.043,35.16V14h-3.5V47.515h3.5V40.121l3.012-3.259,9.28,10.653H177Z"/>
  <path id="genius" class="cls-2" d="M19.625,42.067q-0.729.146-1.6,0.243a17.153,17.153,0,0,1-1.895.1,7.46,7.46,0,0,1-2.2-.276,3.578,3.578,0,0,1-1.668-1.038A5.006,5.006,0,0,1,11.2,38.962a13.916,13.916,0,0,1-.373-3.559,13.383,13.383,0,0,1,.575-4.345,4.431,4.431,0,0,1,1.62-2.319,4.363,4.363,0,0,1,2.518-.681,8.023,8.023,0,0,1,2.033.219,2.9,2.9,0,0,1,1.474.827,2.4,2.4,0,0,1,.575,1.678V42.067ZM15.544,22.853a12.857,12.857,0,0,0-1.879.138,11.376,11.376,0,0,0-2.259.592A9.378,9.378,0,0,0,9.09,24.864a8.936,8.936,0,0,0-2.057,2.221,11.541,11.541,0,0,0-1.474,3.4A18.979,18.979,0,0,0,5,35.306a15.022,15.022,0,0,0,1.271,6.469A8.865,8.865,0,0,0,9.964,45.8a12.078,12.078,0,0,0,5.968,1.378,15.7,15.7,0,0,0,1.862-.105c0.616-.065,1.223-0.162,1.83-0.284V48.1a6.817,6.817,0,0,1-.049.981,2.5,2.5,0,0,1-.324.989,2.437,2.437,0,0,1-.874.876,5.307,5.307,0,0,1-1.709.616,14.156,14.156,0,0,1-2.826.235,21.67,21.67,0,0,1-3.628-.3,18.8,18.8,0,0,1-2.688-.673v5.2a21.688,21.688,0,0,0,3.061.689A27.224,27.224,0,0,0,14.523,57a16.879,16.879,0,0,0,4.794-.608,9.251,9.251,0,0,0,3.166-1.573,7.348,7.348,0,0,0,1.871-2.156,8.437,8.437,0,0,0,.883-2.367,10.9,10.9,0,0,0,.219-2.2V30.83a8.028,8.028,0,0,0-.518-2.87A7.116,7.116,0,0,0,23.253,25.4a8.338,8.338,0,0,0-3.061-1.84A13.848,13.848,0,0,0,15.544,22.853Zm22.291,4.718a4.139,4.139,0,0,1,2.041.5,4.619,4.619,0,0,1,1.466,1.338,6.805,6.805,0,0,1,.947,1.913,10.664,10.664,0,0,1,.453,2.23H32.976a10.427,10.427,0,0,1,.777-3.478,4.075,4.075,0,0,1,1.62-1.913,4.679,4.679,0,0,1,2.462-.592m1.312,15.323a11.35,11.35,0,0,1-2.105-.17,5.324,5.324,0,0,1-1.911-.73,4.172,4.172,0,0,1-1.441-1.605,7.051,7.051,0,0,1-.713-2.8h15.6c0.049-.486.073-0.973,0.081-1.475s0.016-1.005.016-1.54a15.67,15.67,0,0,0-.4-3.559,12.279,12.279,0,0,0-1.231-3.211A9.856,9.856,0,0,0,44.921,25.2a9.459,9.459,0,0,0-3.045-1.751,12.178,12.178,0,0,0-4.041-.64,11.917,11.917,0,0,0-5.037.989,8.644,8.644,0,0,0-3.353,2.716,11.587,11.587,0,0,0-1.863,4.07A20.1,20.1,0,0,0,27,35.646a17.493,17.493,0,0,0,.713,5.237,10.222,10.222,0,0,0,1.871,3.535,8.981,8.981,0,0,0,2.64,2.14,11.15,11.15,0,0,0,3.029,1.062,15.768,15.768,0,0,0,3.02.284,21.538,21.538,0,0,0,3.6-.3,19.209,19.209,0,0,0,3.045-.779,17.323,17.323,0,0,0,2.494-1.111V41A18.9,18.9,0,0,1,39.147,42.894ZM85.829,19.934l2.431-5.351H82.284l-2.431,5.351h5.976ZM67.443,47.462l-0.024.053h0.024V47.462Zm5.879-.107L84.278,23.242H78.447l-5.125,11.28V47.355ZM94.656,23.242V37.3a7.931,7.931,0,0,1-.51,3.154,3.455,3.455,0,0,1-1.652,1.783,6.375,6.375,0,0,1-2.939.559,6.3,6.3,0,0,1-2.907-.559,3.457,3.457,0,0,1-1.636-1.783A7.924,7.924,0,0,1,84.5,37.3V25.437L78.7,38.2a12.318,12.318,0,0,0,1.23,4.452,9.041,9.041,0,0,0,3.741,3.892,13.438,13.438,0,0,0,11.791,0,9.032,9.032,0,0,0,3.757-3.892,13.43,13.43,0,0,0,1.312-6.129V23.242H94.656Zm13.46,6.664a1.541,1.541,0,0,1,.543-1.224,3.208,3.208,0,0,1,1.474-.632,10.171,10.171,0,0,1,2.162-.187,14.452,14.452,0,0,1,3.1.324,12.262,12.262,0,0,1,2.486.843V24.6a13.1,13.1,0,0,0-3.045-1.281,13.606,13.606,0,0,0-3.562-.47,12.123,12.123,0,0,0-3.434.47,8.619,8.619,0,0,0-2.867,1.411,6.72,6.72,0,0,0-1.96,2.367,7.445,7.445,0,0,0-.728,3.34,6.651,6.651,0,0,0,.64,3,5.884,5.884,0,0,0,1.651,1.978,9.639,9.639,0,0,0,2.26,1.265c0.818,0.324,1.644.6,2.462,0.835s1.571,0.478,2.259.721a5.11,5.11,0,0,1,1.652.9,1.756,1.756,0,0,1,.639,1.37,2.971,2.971,0,0,1-.105.916,1.386,1.386,0,0,1-.51.746,2.966,2.966,0,0,1-1.206.494,11.252,11.252,0,0,1-2.211.179,12.265,12.265,0,0,1-2.616-.292,12.4,12.4,0,0,1-2.3-.779,12.592,12.592,0,0,1-1.935-1.07v5.2a15.013,15.013,0,0,0,3.458,1.435,15.685,15.685,0,0,0,4.219.559,11.716,11.716,0,0,0,4.8-.941,7.477,7.477,0,0,0,3.126-2.529A6.338,6.338,0,0,0,119.68,40.8a8.981,8.981,0,0,0-.64-3.535,6.44,6.44,0,0,0-1.652-2.311,8.926,8.926,0,0,0-2.259-1.427,18.791,18.791,0,0,0-2.462-.892c-0.817-.227-1.571-0.454-2.259-0.673a5.418,5.418,0,0,1-1.652-.794,1.553,1.553,0,0,1-.64-1.265M56.2,47.515V33.457a7.925,7.925,0,0,1,.51-3.154,3.454,3.454,0,0,1,1.652-1.783,6.379,6.379,0,0,1,2.939-.56,6.3,6.3,0,0,1,2.907.56A3.456,3.456,0,0,1,65.848,30.3a7.926,7.926,0,0,1,.51,3.154V47.515h5.879V34.235a13.43,13.43,0,0,0-1.312-6.129,9.04,9.04,0,0,0-3.741-3.891,13.439,13.439,0,0,0-11.79,0,9.03,9.03,0,0,0-3.757,3.891,13.425,13.425,0,0,0-1.312,6.129V47.515H56.2Z"/>
  <path id="Chrome_Extension_copy" data-name="Chrome Extension copy" class="cls-3" d="M75.257,55.739l0.441-.886a5.584,5.584,0,0,0-2.46-.51,4.55,4.55,0,0,0-2.3.559,3.7,3.7,0,0,0-1.493,1.591,5.3,5.3,0,0,0-.517,2.4A4.874,4.874,0,0,0,70,62.278a3.9,3.9,0,0,0,3.051,1.19,6.628,6.628,0,0,0,2.3-.346v-0.9a8.071,8.071,0,0,1-2.136.334,2.938,2.938,0,0,1-2.347-.95,3.987,3.987,0,0,1-.823-2.693A3.91,3.91,0,0,1,70.9,56.24a2.937,2.937,0,0,1,2.329-.974,4.775,4.775,0,0,1,2.032.473h0Zm7.56,7.607V59.005a2.43,2.43,0,0,0-.615-1.843,2.6,2.6,0,0,0-1.845-.58,2.8,2.8,0,0,0-1.264.276,2.066,2.066,0,0,0-.854.756H78.178a6.188,6.188,0,0,0,.049-0.856V53.9H77.211v9.447h1.016V59.868A2.874,2.874,0,0,1,78.714,58a1.924,1.924,0,0,1,1.546-.571,1.529,1.529,0,0,1,1.169.4,1.728,1.728,0,0,1,.373,1.214v4.3h1.016Zm4.053-6.423a2.934,2.934,0,0,0-.9,1H85.922l-0.116-1.233H84.967v6.654h1.016v-3.57a2.379,2.379,0,0,1,.579-1.633,1.794,1.794,0,0,1,1.392-.656,3.49,3.49,0,0,1,.734.091l0.141-.935a4.006,4.006,0,0,0-.8-0.073A2.037,2.037,0,0,0,86.871,56.923ZM95.108,57.5a2.849,2.849,0,0,0-2.237-.929,2.913,2.913,0,0,0-2.277.908,3.646,3.646,0,0,0-.82,2.535,4.159,4.159,0,0,0,.38,1.834,2.772,2.772,0,0,0,1.077,1.2,3.043,3.043,0,0,0,1.6.419,2.922,2.922,0,0,0,2.283-.914A4.271,4.271,0,0,0,95.108,57.5Zm-3.773.577a1.794,1.794,0,0,1,1.506-.65,1.824,1.824,0,0,1,1.527.659,3.074,3.074,0,0,1,.517,1.928,3.124,3.124,0,0,1-.517,1.946,2.052,2.052,0,0,1-3.027,0,3.139,3.139,0,0,1-.514-1.943A3.107,3.107,0,0,1,91.334,58.077Zm16.013,5.27V59.005a2.578,2.578,0,0,0-.566-1.855,2.281,2.281,0,0,0-1.7-.58,2.716,2.716,0,0,0-1.3.3,2.135,2.135,0,0,0-.869.826h-0.049a2,2,0,0,0-2.057-1.129,2.494,2.494,0,0,0-1.172.273,1.99,1.99,0,0,0-.811.759H98.772l-0.165-.911H97.781v6.654H98.8V59.855a3.053,3.053,0,0,1,.444-1.861,1.666,1.666,0,0,1,1.4-.568,1.338,1.338,0,0,1,1.071.4,1.784,1.784,0,0,1,.343,1.193v4.329h1.016V59.631a2.553,2.553,0,0,1,.453-1.663,1.727,1.727,0,0,1,1.4-.54,1.333,1.333,0,0,1,1.065.4,1.789,1.789,0,0,1,.342,1.193v4.329h1.016Zm6.15,0.021a5.407,5.407,0,0,0,1.019-.331v-0.9a5.439,5.439,0,0,1-2.142.449,2.074,2.074,0,0,1-1.595-.607,2.624,2.624,0,0,1-.6-1.779H114.8V59.564a3.135,3.135,0,0,0-.735-2.17,2.538,2.538,0,0,0-2-.823,2.661,2.661,0,0,0-2.145.947,3.834,3.834,0,0,0-.8,2.556,3.463,3.463,0,0,0,.86,2.5,3.1,3.1,0,0,0,2.347.9A5.77,5.77,0,0,0,113.5,63.368Zm-0.211-5.446a2.207,2.207,0,0,1,.428,1.46h-3.507a2.4,2.4,0,0,1,.566-1.445,1.668,1.668,0,0,1,1.289-.522A1.515,1.515,0,0,1,113.286,57.922Zm11.773,4.5h-3.948V59.157h3.709V58.247h-3.709v-2.86h3.948V54.47h-4.988v8.876h4.988V62.423Zm1.054,0.923h1.151l1.9-2.7,1.879,2.7h1.151l-2.455-3.406,2.332-3.248h-1.144l-1.763,2.55-1.769-2.55h-1.157l2.332,3.248Zm8.846-1.032a1.339,1.339,0,0,1-.288-0.923V57.475h1.947V56.692h-1.947V55.15h-0.587l-0.429,1.421-0.961.419v0.486h0.961v3.958a1.76,1.76,0,0,0,1.947,2.034,3.692,3.692,0,0,0,.578-0.052,1.886,1.886,0,0,0,.487-0.13V62.515a3.4,3.4,0,0,1-.4.082,3.359,3.359,0,0,1-.521.039A1,1,0,0,1,134.959,62.314Zm7.1,1.053a5.384,5.384,0,0,0,1.019-.331v-0.9a5.436,5.436,0,0,1-2.142.449,2.072,2.072,0,0,1-1.594-.607,2.619,2.619,0,0,1-.6-1.779h4.621V59.564a3.14,3.14,0,0,0-.734-2.17,2.541,2.541,0,0,0-2-.823,2.664,2.664,0,0,0-2.145.947,3.84,3.84,0,0,0-.8,2.556,3.463,3.463,0,0,0,.86,2.5,3.1,3.1,0,0,0,2.348.9A5.766,5.766,0,0,0,142.063,63.368Zm-0.211-5.446a2.2,2.2,0,0,1,.429,1.46h-3.507a2.392,2.392,0,0,1,.566-1.445,1.664,1.664,0,0,1,1.288-.522A1.513,1.513,0,0,1,141.852,57.922Zm8.919,5.425V59.005a2.456,2.456,0,0,0-.612-1.855,2.561,2.561,0,0,0-1.824-.58,2.859,2.859,0,0,0-1.254.27,2.073,2.073,0,0,0-.876.762h-0.048l-0.166-.911h-0.826v6.654h1.016V59.855a2.83,2.83,0,0,1,.49-1.864,1.935,1.935,0,0,1,1.542-.565,1.529,1.529,0,0,1,1.169.4,1.727,1.727,0,0,1,.373,1.214v4.3h1.016Zm6.058-2.914a4.4,4.4,0,0,0-1.612-.868,9.929,9.929,0,0,1-1.176-.492,1.343,1.343,0,0,1-.443-0.358,0.748,0.748,0,0,1-.138-0.455,0.693,0.693,0,0,1,.367-0.619,2.122,2.122,0,0,1,1.09-.225,4.9,4.9,0,0,1,1.83.413l0.361-.82a5.4,5.4,0,0,0-2.118-.437,3.129,3.129,0,0,0-1.83.471,1.489,1.489,0,0,0-.667,1.284,1.514,1.514,0,0,0,.193.783,1.8,1.8,0,0,0,.587.586,7.206,7.206,0,0,0,1.331.6,5.384,5.384,0,0,1,1.326.653,0.864,0.864,0,0,1-.089,1.433,2.44,2.44,0,0,1-1.224.252,4.357,4.357,0,0,1-1.068-.14,5.062,5.062,0,0,1-1.038-.383v0.935a4.29,4.29,0,0,0,2.081.419,3.3,3.3,0,0,0,1.959-.5,1.663,1.663,0,0,0,.7-1.433A1.523,1.523,0,0,0,156.829,60.432Zm3.151-3.74h-1.016v6.654h1.016V56.692Zm-0.93-1.3a0.624,0.624,0,0,0,.85,0,0.662,0.662,0,0,0,.178-0.507,0.652,0.652,0,0,0-.178-0.5,0.637,0.637,0,0,0-.85,0,0.664,0.664,0,0,0-.172.507A0.675,0.675,0,0,0,159.05,55.4Zm8.108,2.1a2.849,2.849,0,0,0-2.237-.929,2.914,2.914,0,0,0-2.277.908,3.645,3.645,0,0,0-.82,2.535,4.16,4.16,0,0,0,.379,1.834,2.773,2.773,0,0,0,1.077,1.2,3.046,3.046,0,0,0,1.6.419,2.922,2.922,0,0,0,2.283-.914A4.273,4.273,0,0,0,167.158,57.5Zm-3.774.577a1.8,1.8,0,0,1,1.506-.65,1.824,1.824,0,0,1,1.527.659,3.072,3.072,0,0,1,.517,1.928,3.122,3.122,0,0,1-.517,1.946,2.051,2.051,0,0,1-3.026,0A3.934,3.934,0,0,1,163.384,58.077Zm12.054,5.27V59.005a2.456,2.456,0,0,0-.613-1.855,2.561,2.561,0,0,0-1.824-.58,2.859,2.859,0,0,0-1.254.27,2.073,2.073,0,0,0-.876.762h-0.048l-0.166-.911h-0.826v6.654h1.016V59.855a2.83,2.83,0,0,1,.49-1.864,1.935,1.935,0,0,1,1.542-.565,1.529,1.529,0,0,1,1.169.4,1.727,1.727,0,0,1,.373,1.214v4.3h1.017Z"/>
</svg>
